<svg preserveAspectRatio="none" width="100%" height="100%" overflow="visible" style="display: block;" viewBox="0 0 18.3333 14.6667" fill="none" xmlns="http://www.w3.org/2000/svg">
<path id="mail" d="M1.83333 14.6667C1.32917 14.6667 0.89757 14.4872 0.538542 14.1281C0.179514 13.7691 0 13.3375 0 12.8333V1.83333C0 1.32917 0.179514 0.89757 0.538542 0.538542C0.89757 0.179514 1.32917 0 1.83333 0H16.5C17.0042 0 17.4358 0.179514 17.7948 0.538542C18.1538 0.89757 18.3333 1.32917 18.3333 1.83333V12.8333C18.3333 13.3375 18.1538 13.7691 17.7948 14.1281C17.4358 14.4872 17.0042 14.6667 16.5 14.6667H1.83333ZM9.16667 8.25L16.5 3.66667V1.83333L9.16667 6.41667L1.83333 1.83333V3.66667L9.16667 8.25Z" fill="var(--fill-0, white)"/>
</svg>
