<svg preserveAspectRatio="none" width="100%" height="100%" overflow="visible" style="display: block;" viewBox="0 0 36 28" fill="none" xmlns="http://www.w3.org/2000/svg">
<g id="cross">
<g id="red">
<mask id="path-1-inside-1_0_352" fill="white">
<path fill-rule="evenodd" clip-rule="evenodd" d="M21.7502 0H14.1947V10H0V18H14.1947V28H21.7502V18H36V10H21.7502V0Z"/>
</mask>
<path fill-rule="evenodd" clip-rule="evenodd" d="M21.7502 0H14.1947V10H0V18H14.1947V28H21.7502V18H36V10H21.7502V0Z" fill="var(--fill-0, #F50100)"/>
<path d="M14.1947 0V-2H12.1947V0H14.1947ZM21.7502 0H23.7502V-2H21.7502V0ZM14.1947 10V12H16.1947V10H14.1947ZM0 10V8H-2V10H0ZM0 18H-2V20H0V18ZM14.1947 18H16.1947V16H14.1947V18ZM14.1947 28H12.1947V30H14.1947V28ZM21.7502 28V30H23.7502V28H21.7502ZM21.7502 18V16H19.7502V18H21.7502ZM36 18V20H38V18H36ZM36 10H38V8H36V10ZM21.7502 10H19.7502V12H21.7502V10ZM14.1947 0V2H21.7502V0V-2H14.1947V0ZM14.1947 10H16.1947V0H14.1947H12.1947V10H14.1947ZM0 10V12H14.1947V10V8H0V10ZM0 18H2V10H0H-2V18H0ZM14.1947 18V16H0V18V20H14.1947V18ZM14.1947 28H16.1947V18H14.1947H12.1947V28H14.1947ZM21.7502 28V26H14.1947V28V30H21.7502V28ZM21.7502 18H19.7502V28H21.7502H23.7502V18H21.7502ZM36 18V16H21.7502V18V20H36V18ZM36 10H34V18H36H38V10H36ZM21.7502 10V12H36V10V8H21.7502V10ZM21.7502 0H19.7502V10H21.7502H23.7502V0H21.7502Z" fill="var(--stroke-0, white)" mask="url(#path-1-inside-1_0_352)"/>
</g>
</g>
</svg>
