<svg preserveAspectRatio="none" width="100%" height="100%" overflow="visible" style="display: block;" viewBox="0 0 26.6667 26.6667" fill="none" xmlns="http://www.w3.org/2000/svg">
<path id="path-01" d="M18.6617 0H8.005C3.60225 0 0 3.60225 0 8.005V18.6617C0 23.0644 3.60225 26.6667 8.005 26.6667H18.6617C23.0644 26.6667 26.6667 23.0644 26.6667 18.6617V8.005C26.6667 3.60225 23.1144 0 18.6617 0ZM20.3127 13.3583C20.3127 17.1607 17.2608 20.2126 13.4584 20.2126C9.65603 20.2126 6.60413 17.1607 6.60413 13.3583C6.60413 9.55597 9.65603 6.50406 13.4584 6.50406C17.2108 6.50406 20.3127 9.55597 20.3127 13.3583ZM20.3127 8.10507C19.4121 8.10507 18.7117 7.40463 18.7117 6.50406C18.7117 5.6035 19.4121 4.90306 20.3127 4.90306C21.2133 4.90306 21.9137 5.6035 21.9137 6.50406C21.9137 7.3546 21.1632 8.10507 20.3127 8.10507Z" fill="var(--fill-0, #3871F2)"/>
</svg>
