<svg preserveAspectRatio="none" width="100%" height="100%" overflow="visible" style="display: block;" viewBox="0 0 45 45" fill="none" xmlns="http://www.w3.org/2000/svg">
<g id="Group 633413">
<circle id="bg" cx="22.5" cy="22.5" r="22.5" fill="var(--fill-0, #3871F2)"/>
<g id="tabler-icon-phone-calling">
<path id="Vector" d="M25 18V18.01M28 18V18.01M31 18V18.01M15 15H19L21 20L18.5 21.5C19.571 23.6715 21.3285 25.429 23.5 26.5L25 24L30 26V30C30 30.5304 29.7893 31.0391 29.4142 31.4142C29.0391 31.7893 28.5304 32 28 32C24.0993 31.763 20.4202 30.1065 17.6568 27.3432C14.8935 24.5798 13.237 20.9007 13 17C13 16.4696 13.2107 15.9609 13.5858 15.5858C13.9609 15.2107 14.4696 15 15 15Z" stroke="var(--stroke-0, white)" stroke-width="1.5" stroke-linecap="round" stroke-linejoin="round"/>
</g>
</g>
</svg>
