<svg preserveAspectRatio="none" width="100%" height="100%" overflow="visible" style="display: block;" viewBox="0 0 135 155.887" fill="none" xmlns="http://www.w3.org/2000/svg">
<g id="Group">
<path id="Vector" d="M67.5 0L0 38.968V116.919L67.5 155.887L135 116.919V38.968L67.5 0ZM122.258 109.562L67.4848 141.174L12.7264 109.562V46.3247L67.4848 14.7135L122.243 46.3247V109.562H122.258Z" fill="var(--fill-0, #3871F2)"/>
<path id="Vector_2" d="M50.4203 71.2584H41.3647V56.6208L28.8203 64.2657V90.7955L41.3647 98.4404V83.8028C46.3703 83.8028 50.4203 87.8528 50.4203 92.8584V110.651L62.9647 118.296V36.75L50.4203 44.395V71.2584Z" fill="var(--fill-0, #3871F2)"/>
<path id="Vector_3" d="M106.18 93.3438V84.6978V66.7989L93.6352 59.1539V89.0815L84.5795 94.1781V44.395L72.0352 36.75V104.417V118.296V119.13L106.18 99.4112V93.3438Z" fill="var(--fill-0, #3871F2)"/>
</g>
</svg>
