<svg preserveAspectRatio="none" width="100%" height="100%" overflow="visible" style="display: block;" viewBox="0 0 116.667 40" fill="none" xmlns="http://www.w3.org/2000/svg">
<g id="Logo" clip-path="url(#clip0_0_400)">
<path id="Vector" d="M17.5628 2.56641C7.89787 2.56641 0.0625 10.4016 0.0625 20.0665C0.0625 29.7319 7.89787 37.5664 17.5628 37.5664C27.2288 37.5664 35.0634 29.7319 35.0634 20.0665C35.0634 10.4022 27.2288 2.56724 17.5626 2.56724L17.5628 2.56641V2.56641ZM25.5884 27.8066C25.2749 28.3207 24.602 28.4837 24.0879 28.1681C19.979 25.6583 14.8064 25.0899 8.71476 26.4817C8.12774 26.6154 7.54261 26.2476 7.40886 25.6604C7.27449 25.0732 7.64083 24.488 8.22931 24.3543C14.8957 22.8313 20.6139 23.487 25.2268 26.3061C25.7409 26.6217 25.9039 27.2925 25.5884 27.8066V27.8066ZM27.7304 23.0415C27.3354 23.6835 26.4953 23.8862 25.8538 23.4912C21.1497 20.5998 13.9791 19.7625 8.41509 21.4514C7.69349 21.6694 6.93135 21.2627 6.71234 20.5423C6.49501 19.8208 6.90189 19.0601 7.62223 18.8407C13.9778 16.9122 21.879 17.8463 27.2811 21.1659C27.9226 21.5609 28.1253 22.401 27.7304 23.0417V23.0415ZM27.9143 18.0796C22.274 14.7295 12.9683 14.4214 7.58315 16.0558C6.71841 16.3181 5.80392 15.8299 5.54187 14.9652C5.27981 14.1 5.76756 13.1862 6.63293 12.9233C12.8147 11.0467 23.0911 11.4092 29.5848 15.2642C30.3643 15.7259 30.6193 16.7304 30.1574 17.5072C29.6977 18.285 28.6904 18.5414 27.9151 18.0796H27.9143ZM47.6751 18.7215C44.6533 18.001 44.1162 17.4953 44.1162 16.4326C44.1162 15.4287 45.0608 14.7531 46.4672 14.7531C47.8297 14.7531 49.1797 15.2661 50.5966 16.3223C50.6384 16.3543 50.6927 16.367 50.745 16.3586C50.7993 16.3507 50.8453 16.3217 50.8766 16.278L52.352 14.1982C52.4126 14.1126 52.3959 13.9945 52.3144 13.9291C50.6279 12.5764 48.7304 11.9187 46.5111 11.9187C43.249 11.9187 40.969 13.8766 40.969 16.678C40.969 19.682 42.9355 20.7457 46.3335 21.5668C49.2236 22.2328 49.7126 22.7907 49.7126 23.788C49.7126 24.8934 48.7263 25.581 47.138 25.581C45.3743 25.581 43.9344 24.9854 42.3253 23.5936C42.2856 23.5581 42.2313 23.5435 42.1811 23.5456C42.1268 23.5497 42.0787 23.5748 42.0453 23.6145L40.3902 25.5831C40.3212 25.6667 40.3296 25.7879 40.409 25.8589C42.2814 27.5307 44.5843 28.4126 47.0712 28.4126C50.5861 28.4126 52.8577 26.4921 52.8577 23.5184C52.864 21.0092 51.3614 19.6195 47.6814 18.7243L47.6751 18.7215V18.7215ZM60.8114 15.7415C59.2879 15.7415 58.0383 16.3417 57.0059 17.5715V16.1873C57.0059 16.078 56.9181 15.989 56.8095 15.989H54.1032C53.9946 15.989 53.9068 16.078 53.9068 16.1873V31.5682C53.9068 31.6768 53.9946 31.7667 54.1032 31.7667H56.8095C56.9181 31.7667 57.0059 31.6768 57.0059 31.5682V26.7136C58.0383 27.8693 59.2879 28.4356 60.8114 28.4356C63.643 28.4356 66.5102 26.256 66.5102 22.0892C66.5143 17.9216 63.6472 15.7413 60.8135 15.7413L60.8114 15.7415ZM63.363 22.0892C63.363 24.2101 62.0569 25.6917 60.1844 25.6917C58.335 25.6917 56.939 24.1432 56.939 22.0892C56.939 20.035 58.335 18.4869 60.1844 18.4869C62.0255 18.4866 63.363 20.0013 63.363 22.089V22.0892ZM73.8557 15.7415C70.2091 15.7415 67.3523 18.5493 67.3523 22.1345C67.3523 25.6813 70.1902 28.4586 73.8118 28.4586C77.471 28.4586 80.3361 25.6604 80.3361 22.0892C80.3361 18.5301 77.4898 15.742 73.8557 15.742V15.7415V15.7415ZM73.8557 25.7126C71.9164 25.7126 70.4536 24.1537 70.4536 22.0881C70.4536 20.0132 71.8662 18.5075 73.8118 18.5075C75.7637 18.5075 77.2348 20.0659 77.2348 22.1335C77.2348 24.208 75.8138 25.7126 73.8557 25.7126V25.7126ZM88.1225 15.989H85.1446V12.945C85.1446 12.8359 85.0568 12.7469 84.9482 12.7469H82.2419C82.1333 12.7469 82.0434 12.8359 82.0434 12.945V15.989H80.7436C80.6349 15.989 80.5471 16.078 80.5471 16.1873V18.5126C80.5471 18.6216 80.6349 18.7109 80.7436 18.7109H82.0434V24.7284C82.0434 27.1588 83.2534 28.3917 85.642 28.3917C86.6116 28.3917 87.4162 28.1911 88.1748 27.7606C88.2375 27.7272 88.2751 27.6603 88.2751 27.5892V25.3741C88.2751 25.3072 88.2396 25.2424 88.181 25.2069C88.1225 25.1693 88.0494 25.1672 87.9888 25.1986C87.4684 25.4598 86.9648 25.581 86.4006 25.581C85.5333 25.581 85.1446 25.186 85.1446 24.3041V18.7119H88.1225C88.2312 18.7119 88.319 18.6229 88.319 18.5136V16.1885C88.3231 16.0792 88.2354 15.9902 88.1246 15.9902L88.1225 15.989V15.989ZM98.4961 16.0009V15.627C98.4961 14.5272 98.9183 14.0367 99.8628 14.0367C100.427 14.0367 100.881 14.1487 101.388 14.318C101.451 14.3376 101.516 14.3278 101.566 14.2904C101.618 14.253 101.647 14.193 101.647 14.1295V11.8496C101.647 11.7624 101.593 11.6853 101.507 11.6596C100.973 11.5001 100.287 11.3365 99.2589 11.3365C96.7616 11.3365 95.4388 12.7438 95.4388 15.4047V15.9773H94.139C94.0303 15.9773 93.9404 16.0663 93.9404 16.1754V18.5126C93.9404 18.6216 94.0303 18.7109 94.139 18.7109H95.4388V27.9905C95.4388 28.1012 95.5287 28.189 95.6373 28.189H98.3415C98.4522 28.189 98.54 28.1012 98.54 27.9905V18.7115H101.067L104.937 27.9905C104.498 28.9643 104.065 29.1587 103.476 29.1587C103 29.1587 102.496 29.0166 101.984 28.7344C101.936 28.7094 101.877 28.7052 101.827 28.7198C101.775 28.7386 101.731 28.7762 101.71 28.8264L100.793 30.8388C100.749 30.935 100.787 31.0457 100.878 31.0959C101.836 31.6141 102.699 31.8356 103.767 31.8356C105.764 31.8356 106.87 30.9036 107.842 28.4001L112.535 16.2717C112.56 16.2107 112.552 16.1417 112.514 16.0876C112.479 16.0339 112.418 16.0015 112.353 16.0015H109.536C109.451 16.0015 109.375 16.0552 109.348 16.1344L106.462 24.3752L103.303 16.129C103.273 16.0523 103.2 16.0015 103.119 16.0015H98.4961V16.0009V16.0009ZM92.4818 15.989H89.7755C89.6669 15.989 89.577 16.078 89.577 16.1873V27.9905C89.577 28.1012 89.6669 28.189 89.7755 28.189H92.4818C92.5904 28.189 92.6803 28.1012 92.6803 27.9905V16.1881C92.6803 16.0788 92.5925 15.9898 92.4818 15.9898V15.989ZM91.1443 10.6143C90.0723 10.6143 89.2029 11.482 89.2029 12.5538C89.2029 13.6263 90.0723 14.495 91.1443 14.495C92.2164 14.495 93.0836 13.6263 93.0836 12.5538C93.0836 11.4822 92.2143 10.6143 91.1443 10.6143ZM114.846 19.7842C113.777 19.7842 112.943 18.9242 112.943 17.88C112.943 16.8357 113.787 15.966 114.857 15.966C115.927 15.966 116.761 16.8257 116.761 17.8691C116.761 18.9134 115.916 19.7842 114.846 19.7842ZM114.857 16.1553C113.881 16.1553 113.143 16.9306 113.143 17.88C113.143 18.829 113.877 19.5938 114.846 19.5938C115.822 19.5938 116.56 18.8191 116.56 17.8691C116.56 16.9202 115.827 16.1553 114.857 16.1553V16.1553ZM115.279 18.0649L115.818 18.8189H115.363L114.878 18.1272H114.462V18.8189H114.082V16.8203H114.972C115.438 16.8203 115.743 17.0579 115.743 17.4579C115.745 17.7855 115.555 17.9857 115.281 18.0649H115.279ZM114.957 17.1632H114.462V17.7954H114.957C115.204 17.7954 115.352 17.6744 115.352 17.479C115.352 17.2733 115.204 17.1632 114.957 17.1632V17.1632Z" fill="var(--fill-0, #E6E6E6)"/>
</g>
<defs>
<clipPath id="clip0_0_400">
<rect width="116.667" height="40" fill="white"/>
</clipPath>
</defs>
</svg>
