<svg preserveAspectRatio="none" width="100%" height="100%" overflow="visible" style="display: block;" viewBox="0 0 100.833 40" fill="none" xmlns="http://www.w3.org/2000/svg">
<g id="Logo" clip-path="url(#clip0_0_357)">
<path id="Vector" d="M31.6039 27.0237L32.8274 24.1641C34.1669 25.1562 35.9141 25.6812 37.6618 25.6812C38.9433 25.6812 39.7586 25.1854 39.7586 24.4269C39.7294 22.3258 32.0408 23.9599 31.9824 18.6777C31.9531 15.9932 34.3415 13.9214 37.7203 13.9214C39.7294 13.9214 41.7393 14.4176 43.1662 15.5558L42.0229 18.4764C40.7101 17.6322 39.0886 17.0437 37.5452 17.0437C36.4968 17.0437 35.7976 17.5395 35.7976 18.1819C35.8268 20.2537 43.5743 19.1154 43.6616 24.1641C43.6616 26.9071 41.3312 28.8331 38.011 28.8331C35.5649 28.8331 33.3223 28.2496 31.6035 27.0237H31.6039ZM80.319 23.1287C80.0102 23.6774 79.561 24.1341 79.0174 24.4519C78.4739 24.7697 77.8556 24.9372 77.226 24.9373C75.2636 24.9373 73.673 23.3434 73.673 21.3773C73.673 19.4112 75.2636 17.8172 77.226 17.8172C77.8556 17.8173 78.4739 17.9848 79.0174 18.3026C79.561 18.6205 80.0102 19.0772 80.319 19.6259L83.7203 17.7379C82.4463 15.461 80.0162 13.9214 77.226 13.9214C73.1162 13.9214 69.7847 17.2592 69.7847 21.3773C69.7847 25.4949 73.1162 28.8331 77.226 28.8331C80.0162 28.8331 82.4463 27.2935 83.7203 25.0166L80.319 23.1287ZM45.8687 28.5412H50.1208V7.71484H45.8691L45.8687 28.5412ZM85.8677 7.71484V28.5412H90.1198V22.3016L95.1585 28.5412H100.594L94.1861 21.1287L100.127 14.2121H94.9254L90.1198 19.9625V7.71484H85.8677ZM63.221 14.2129V15.9059C62.5222 14.7384 60.8038 13.9214 58.9981 13.9214C55.2702 13.9214 52.3288 17.2191 52.3288 21.3626C52.3288 25.5062 55.2702 28.8331 58.9981 28.8331C60.8038 28.8331 62.5222 28.0161 63.221 26.8487V28.5412H67.4732V14.2129H63.221ZM63.221 23.1575C62.6095 24.1787 61.328 24.9369 59.9012 24.9369C57.9384 24.9369 56.3478 23.3434 56.3478 21.3773C56.3478 19.4112 57.9384 17.8172 59.9012 17.8172C61.328 17.8172 62.6095 18.605 63.221 19.6551V23.1575Z" fill="var(--fill-0, #E6E6E6)"/>
<path id="Vector_2" d="M9.14838 7.25391C7.7704 7.25391 6.65348 8.37333 6.65348 9.75382C6.65315 10.0818 6.71742 10.4066 6.84263 10.7097C6.96783 11.0128 7.15151 11.2883 7.38318 11.5205C7.61485 11.7526 7.88998 11.9369 8.19285 12.0627C8.49573 12.1885 8.82042 12.2534 9.14838 12.2537H11.6437V9.75382C11.6442 9.09143 11.3817 8.45594 10.9137 7.98713C10.4458 7.51831 9.81077 7.25457 9.14838 7.25391V7.25391ZM9.14838 13.9203H2.4949C1.11692 13.9203 0 15.0398 0 16.4207C0 17.8011 1.11692 18.9206 2.4949 18.9206H9.1488C10.5264 18.9206 11.6437 17.8011 11.6437 16.4207C11.6437 15.0398 10.5264 13.9203 9.14838 13.9203" fill="var(--fill-0, #E6E6E6)"/>
<path id="Vector_3" d="M24.9503 16.4207C24.9503 15.0398 23.833 13.9203 22.455 13.9203C21.077 13.9203 19.9601 15.0398 19.9601 16.4207V18.9206H22.455C23.1174 18.9199 23.7524 18.6562 24.2204 18.1873C24.6883 17.7185 24.9509 17.083 24.9503 16.4207V16.4207ZM18.2969 16.4207V9.75381C18.2974 9.09142 18.0348 8.45594 17.5669 7.98712C17.0989 7.51831 16.4639 7.25457 15.8015 7.25391C14.4236 7.25391 13.3066 8.37333 13.3066 9.75381V16.4202C13.3066 17.8016 14.4236 18.921 15.8015 18.921C16.4639 18.9203 17.0989 18.6566 17.5669 18.1878C18.0348 17.719 18.2974 17.0835 18.2969 16.4211" fill="var(--fill-0, #E6E6E6)"/>
<path id="Vector_4" d="M15.8015 32.2546C16.4639 32.2539 17.0989 31.9901 17.5669 31.5213C18.0348 31.0525 18.2974 30.417 18.2969 29.7546C18.2974 29.0923 18.0348 28.4568 17.5669 27.988C17.0989 27.5191 16.4639 27.2554 15.8015 27.2547H13.3066V29.7546C13.3066 31.1351 14.4236 32.2546 15.8015 32.2546ZM15.8015 25.5881H22.4554C23.833 25.5881 24.9503 24.4687 24.9503 23.0878C24.9509 22.4254 24.6883 21.7899 24.2204 21.3211C23.7524 20.8523 23.1174 20.5886 22.455 20.5879H15.8015C14.4236 20.5879 13.3066 21.7073 13.3066 23.0878C13.3063 23.4158 13.3706 23.7406 13.4958 24.0437C13.621 24.3468 13.8047 24.6223 14.0363 24.8545C14.268 25.0866 14.5431 25.2708 14.846 25.3966C15.1489 25.5225 15.4736 25.5874 15.8015 25.5877" fill="var(--fill-0, #E6E6E6)"/>
<path id="Vector_5" d="M1.25886e-06 23.0878C-0.000328022 23.4158 0.0639432 23.7406 0.189145 24.0437C0.314348 24.3468 0.498029 24.6223 0.729702 24.8545C0.961374 25.0866 1.2365 25.2708 1.53937 25.3966C1.84225 25.5225 2.16694 25.5874 2.4949 25.5877C3.15729 25.587 3.79229 25.3233 4.26025 24.8545C4.7282 24.3857 4.99077 23.7502 4.99022 23.0878V20.5879H2.4949C1.11692 20.5879 1.25886e-06 21.7073 1.25886e-06 23.0878V23.0878ZM6.65348 23.0878V29.7542C6.65348 31.1351 7.7704 32.2546 9.14838 32.2546C9.81077 32.2539 10.4458 31.9901 10.9137 31.5213C11.3817 31.0525 11.6443 30.417 11.6437 29.7546V23.0878C11.644 22.7598 11.5797 22.435 11.4545 22.1318C11.3293 21.8286 11.1456 21.5531 10.9138 21.321C10.6821 21.0888 10.407 20.9046 10.104 20.7788C9.80111 20.653 9.47638 20.5882 9.14838 20.5879C7.7704 20.5879 6.65348 21.7073 6.65348 23.0878Z" fill="var(--fill-0, #E6E6E6)"/>
</g>
<defs>
<clipPath id="clip0_0_357">
<rect width="100.833" height="40" fill="white"/>
</clipPath>
</defs>
</svg>
