<svg preserveAspectRatio="none" width="100%" height="100%" overflow="visible" style="display: block;" viewBox="0 0 91.6666 40" fill="none" xmlns="http://www.w3.org/2000/svg">
<g id="Logo" clip-path="url(#clip0_0_343)">
<g id="Vector">
<path fill-rule="evenodd" clip-rule="evenodd" d="M56.6098 31.5042C51.3068 35.4129 43.6205 37.4983 37.0027 37.4983C27.7235 37.4983 19.3699 34.0663 13.05 28.3581C12.5535 27.9093 12.9983 27.2975 13.5942 27.6471C20.4146 31.6154 28.8477 34.0027 37.5588 34.0027C43.4338 34.0027 49.8967 32.7872 55.8392 30.2648C56.7369 29.8835 57.4877 30.8527 56.6098 31.5042Z" fill="#E6E6E6"/>
<path fill-rule="evenodd" clip-rule="evenodd" d="M58.8145 28.9818C58.1392 28.1159 54.3338 28.5727 52.6257 28.7753C52.1054 28.8388 52.0259 28.386 52.4946 28.0602C55.5255 25.9271 60.4987 26.5428 61.0787 27.2578C61.6586 27.9768 60.9277 32.962 58.0796 35.3414C57.6427 35.7069 57.2256 35.5122 57.4202 35.0276C58.0598 33.4307 59.4937 29.8517 58.8145 28.9818Z" fill="#E6E6E6"/>
</g>
<g id="Vector_2">
<path fill-rule="evenodd" clip-rule="evenodd" d="M52.7476 13.003V10.9295C52.7476 10.6157 52.9859 10.4052 53.2719 10.4052H62.5551C62.853 10.4052 63.0913 10.6197 63.0913 10.9295V12.7051C63.0874 13.003 62.8371 13.3923 62.3922 14.008L57.5818 20.8761C59.3693 20.8324 61.2561 21.0985 62.8768 22.0121C63.2423 22.2187 63.3416 22.5206 63.3694 22.8185V25.031C63.3694 25.3329 63.0357 25.6865 62.6862 25.5037C59.8301 24.0062 56.0366 23.8433 52.8786 25.5196C52.5569 25.6944 52.2192 25.3449 52.2192 25.043V22.9416C52.2192 22.604 52.2232 22.028 52.5609 21.5156L58.1339 13.5234H53.2838C52.9859 13.5234 52.7476 13.3129 52.7476 13.003Z" fill="#E6E6E6"/>
<path fill-rule="evenodd" clip-rule="evenodd" d="M18.884 25.9407H16.0597C15.7896 25.9209 15.5751 25.7183 15.5552 25.4601V10.9653C15.5552 10.6753 15.7975 10.4449 16.0994 10.4449H18.733C19.0071 10.4568 19.2256 10.6674 19.2455 10.9295V12.8243H19.2971C19.9843 10.9931 21.2753 10.1391 23.0151 10.1391C24.7828 10.1391 25.8871 10.9931 26.6815 12.8243C27.3648 10.9931 28.9179 10.1391 30.5823 10.1391C31.766 10.1391 33.061 10.6276 33.8515 11.724C34.7452 12.9435 34.5625 14.7151 34.5625 16.2683L34.5585 25.4164C34.5585 25.7064 34.3162 25.9407 34.0143 25.9407H31.194C30.912 25.9209 30.6856 25.6944 30.6856 25.4164V17.734C30.6856 17.1223 30.7412 15.5969 30.6061 15.017C30.3956 14.0438 29.764 13.7697 28.9457 13.7697C28.2625 13.7697 27.5475 14.2265 27.2575 14.9574C26.9675 15.6883 26.9953 16.9118 26.9953 17.734V25.4164C26.9953 25.7064 26.753 25.9407 26.4511 25.9407H23.6308C23.3448 25.9209 23.1224 25.6944 23.1224 25.4164L23.1184 17.734C23.1184 16.1173 23.3846 13.7379 21.3786 13.7379C19.3487 13.7379 19.4282 16.0577 19.4282 17.734V25.4164C19.4282 25.7064 19.1859 25.9407 18.884 25.9407Z" fill="#E6E6E6"/>
<path fill-rule="evenodd" clip-rule="evenodd" d="M71.0834 10.1391C75.2742 10.1391 77.5423 13.7379 77.5423 18.314C77.5423 22.7351 75.0358 26.2426 71.0834 26.2426C66.9681 26.2426 64.7278 22.6437 64.7278 18.1591C64.7278 13.6466 66.996 10.1391 71.0834 10.1391ZM71.1072 13.0984C69.0258 13.0984 68.8947 15.9346 68.8947 17.7022C68.8947 19.4739 68.8669 23.2555 71.0834 23.2555C73.2721 23.2555 73.3754 20.2048 73.3754 18.3457C73.3754 17.1223 73.3238 15.6605 72.9543 14.5006C72.6366 13.4916 72.005 13.0984 71.1072 13.0984Z" fill="#E6E6E6"/>
<path fill-rule="evenodd" clip-rule="evenodd" d="M82.9765 25.9407H80.1641C79.8821 25.9209 79.6557 25.6944 79.6557 25.4164L79.6517 10.9176C79.6755 10.6515 79.9099 10.4449 80.1959 10.4449H82.8136C83.0599 10.4568 83.2625 10.6237 83.3181 10.8501V13.0666H83.3697C84.1602 11.0845 85.2685 10.1391 87.2189 10.1391C88.486 10.1391 89.7214 10.5959 90.5158 11.8471C91.2547 13.007 91.2547 14.9574 91.2547 16.3596V25.4839C91.2229 25.7381 90.9885 25.9407 90.7105 25.9407H87.8782C87.62 25.9209 87.4055 25.7302 87.3777 25.4839V17.6109C87.3777 16.026 87.5605 13.7061 85.6101 13.7061C84.9229 13.7061 84.2913 14.1669 83.9775 14.866C83.5803 15.7519 83.5286 16.6337 83.5286 17.6109V25.4164C83.5247 25.7064 83.2784 25.9407 82.9765 25.9407Z" fill="#E6E6E6"/>
<path fill-rule="evenodd" clip-rule="evenodd" d="M45.3472 19.017C45.3472 20.1174 45.3751 21.0349 44.8189 22.0121C44.3701 22.8066 43.6551 23.2952 42.8646 23.2952C41.7802 23.2952 41.1446 22.4689 41.1446 21.2495C41.1446 18.8423 43.3015 18.4053 45.3472 18.4053V19.017ZM48.1954 25.901C48.0087 26.0678 47.7385 26.0797 47.528 25.9685C46.5906 25.1899 46.4198 24.8285 45.9073 24.0856C44.3582 25.6666 43.2578 26.1393 41.2518 26.1393C38.8725 26.1393 37.0254 24.6735 37.0254 21.738C37.0254 19.446 38.2647 17.8849 40.0363 17.1223C41.5696 16.447 43.7107 16.3278 45.3472 16.1411V15.7757C45.3472 15.1044 45.3989 14.3099 45.0017 13.73C44.66 13.2096 44.0006 12.9951 43.4167 12.9951C42.3402 12.9951 41.3829 13.5472 41.1486 14.6912C41.1009 14.9455 40.9142 15.1957 40.656 15.2076L37.9191 14.9137C37.6887 14.8621 37.4305 14.6754 37.4981 14.3218C38.1257 11.001 41.1287 10 43.814 10C45.1884 10 46.9838 10.3654 48.0682 11.4062C49.4426 12.6892 49.3116 14.4013 49.3116 16.2643V20.6655C49.3116 21.9883 49.8597 22.5682 50.3761 23.2833C50.5549 23.5375 50.5946 23.8433 50.3642 24.034C49.7882 24.5147 48.7634 25.4084 48.1993 25.9089L48.1954 25.901Z" fill="#E6E6E6"/>
<path fill-rule="evenodd" clip-rule="evenodd" d="M8.32169 19.017C8.32169 20.1173 8.3495 21.0349 7.79338 22.0121C7.34451 22.8066 6.63348 23.2952 5.83903 23.2952C4.7546 23.2952 4.12301 22.4689 4.12301 21.2494C4.12301 18.8423 6.27995 18.4053 8.32169 18.4053V19.017ZM11.1698 25.901C10.9831 26.0678 10.713 26.0797 10.5025 25.9685C9.56501 25.1899 9.39817 24.8285 8.88178 24.0856C7.3326 25.6666 6.23626 26.1393 4.22629 26.1393C1.85088 26.1393 -0.000195312 24.6735 -0.000195312 21.738C-0.000195312 19.446 1.24312 17.8849 3.01078 17.1223C4.54407 16.447 6.68512 16.3278 8.32169 16.1411V15.7757C8.32169 15.1044 8.37333 14.3099 7.98008 13.73C7.63449 13.2096 6.9751 12.9951 6.39514 12.9951C5.31866 12.9951 4.35737 13.5472 4.12301 14.6912C4.07534 14.9455 3.88865 15.1957 3.63442 15.2076L0.893564 14.9137C0.663172 14.862 0.408947 14.6754 0.472503 14.3218C1.10409 11.001 4.10315 10 6.7884 10C8.1628 10 9.95826 10.3654 11.0427 11.4062C12.4171 12.6892 12.286 14.4013 12.286 16.2643V20.6655C12.286 21.9883 12.8342 22.5682 13.3506 23.2832C13.5333 23.5375 13.573 23.8433 13.3426 24.034C12.7666 24.5146 11.7418 25.4084 11.1777 25.9089L11.1698 25.901Z" fill="#E6E6E6"/>
</g>
</g>
<defs>
<clipPath id="clip0_0_343">
<rect width="91.6666" height="40" fill="white"/>
</clipPath>
</defs>
</svg>
