<svg preserveAspectRatio="none" width="100%" height="100%" overflow="visible" style="display: block;" viewBox="0 0 81.6666 40" fill="none" xmlns="http://www.w3.org/2000/svg">
<g id="Logo" clip-path="url(#clip0_0_364)">
<path id="Vector" fill-rule="evenodd" clip-rule="evenodd" d="M66.4227 17.1657C66.7345 17.7037 66.8366 18.3158 66.8703 19.004L66.9145 19.9212V26.3352L66.9598 27.2534C67.0502 28.753 68.1561 29.8617 69.6672 29.9561L70.5806 30.0013V19.9212L70.6259 19.004C70.6634 18.3235 70.7645 17.6998 71.0811 17.158C71.4038 16.6022 71.867 16.141 72.4242 15.8209C72.9815 15.5007 73.6131 15.3328 74.2558 15.3339C74.8985 15.3351 75.5295 15.5053 76.0856 15.8275C76.6417 16.1497 77.1032 16.6125 77.4239 17.1695C77.7357 17.7075 77.8329 18.3312 77.8704 19.004L77.9157 19.9184V26.3352L77.9609 27.2534C78.0552 28.7607 79.1525 29.8694 80.6684 29.9561L81.5818 30.0013V19.004C81.5818 17.0594 80.8095 15.1944 79.4347 13.819C78.0599 12.4437 76.1952 11.6707 74.2506 11.6699C73.2097 11.6688 72.1807 11.8898 71.2321 12.3182C70.2836 12.7466 69.4373 13.3725 68.75 14.1541C68.0623 13.3728 67.2161 12.7471 66.2676 12.3185C65.3191 11.89 64.2902 11.6686 63.2494 11.6689C61.7268 11.6689 60.3138 12.1309 59.1435 12.9288C58.4293 12.1319 56.8316 11.6689 55.9143 11.6689V30.0013L56.8316 29.9561C58.3658 29.855 59.4746 28.7761 59.5342 27.2534L59.5833 26.3352V19.9212L59.6286 19.004C59.6671 18.312 59.7633 17.7037 60.0761 17.1618C60.399 16.6064 60.862 16.1453 61.4189 15.8248C61.9757 15.5042 62.6069 15.3354 63.2494 15.335C63.8924 15.3352 64.5241 15.5044 65.081 15.8257C65.638 16.147 66.1007 16.6091 66.4227 17.1657V17.1657ZM3.66609 29.957L4.58333 30.0013H18.3324L18.2871 29.087C18.163 27.5797 17.0956 26.4786 15.5835 26.3805L14.6663 26.3352H6.41782L17.4151 15.3341L17.3699 14.4207C17.2987 12.898 16.186 11.7979 14.6663 11.7142L13.749 11.6728L0 11.6689L0.0452366 12.5862C0.165547 14.079 1.24834 15.2032 2.74788 15.2898L3.66609 15.335H11.9145L0.917244 26.3362L0.962481 27.2534C1.05295 28.7645 2.14344 29.8589 3.66609 29.9561V29.957ZM52.3156 14.3523C53.1669 15.2035 53.8423 16.214 54.303 17.3261C54.7637 18.4383 55.0009 19.6303 55.0009 20.8342C55.0009 22.038 54.7637 23.23 54.303 24.3422C53.8423 25.4543 53.1669 26.4648 52.3156 27.316C50.5957 29.0345 48.2638 29.9999 45.8324 29.9999C43.401 29.9999 41.069 29.0345 39.3491 27.316C35.7696 23.7365 35.7696 17.9318 39.3491 14.3523C40.1996 13.5015 41.2094 12.8265 42.3209 12.3659C43.4323 11.9053 44.6235 11.6682 45.8266 11.668C47.0316 11.6671 48.225 11.9039 49.3384 12.3646C50.4519 12.8254 51.4636 13.5012 52.3156 14.3533V14.3523ZM49.7217 16.9481C50.7528 17.9799 51.3319 19.3789 51.3319 20.8375C51.3319 22.2962 50.7528 23.6951 49.7217 24.7269C48.6899 25.7579 47.291 26.3371 45.8324 26.3371C44.3737 26.3371 42.9748 25.7579 41.943 24.7269C40.912 23.6951 40.3328 22.2962 40.3328 20.8375C40.3328 19.3789 40.912 17.9799 41.943 16.9481C42.9748 15.9171 44.3737 15.338 45.8324 15.338C47.291 15.338 48.6899 15.9171 49.7217 16.9481V16.9481ZM26.5885 11.668C27.7917 11.6683 28.983 11.9056 30.0944 12.3663C31.2058 12.8271 32.2156 13.5023 33.066 14.3533C36.6464 17.9318 36.6464 23.7375 33.066 27.316C31.3461 29.0345 29.0141 29.9999 26.5827 29.9999C24.1514 29.9999 21.8194 29.0345 20.0995 27.316C16.52 23.7365 16.52 17.9318 20.0995 14.3523C20.95 13.5015 21.9598 12.8265 23.0712 12.3659C24.1827 11.9053 25.3739 11.6682 26.577 11.668H26.5885ZM30.4721 16.9462C31.5034 17.9781 32.0828 19.3772 32.0828 20.8361C32.0828 22.295 31.5034 23.6941 30.4721 24.726C29.4403 25.757 28.0414 26.3361 26.5827 26.3361C25.1241 26.3361 23.7252 25.757 22.6934 24.726C21.6623 23.6942 21.0832 22.2952 21.0832 20.8366C21.0832 19.3779 21.6623 17.979 22.6934 16.9472C23.7252 15.9162 25.1241 15.337 26.5827 15.337C28.0414 15.337 29.4403 15.9162 30.4721 16.9472V16.9462Z" fill="var(--fill-0, #E6E6E6)"/>
</g>
<defs>
<clipPath id="clip0_0_364">
<rect width="81.6666" height="40" fill="white"/>
</clipPath>
</defs>
</svg>
