<svg preserveAspectRatio="none" width="100%" height="100%" overflow="visible" style="display: block;" viewBox="0 0 80 40" fill="none" xmlns="http://www.w3.org/2000/svg">
<g id="Logo">
<g id="Vector">
<path d="M0.00195312 29.4967L8.21398 16.7185H0.974776C0.913427 16.3504 0.887134 15.9472 0.887134 15.5003C0.887134 15.0708 0.913427 14.6764 0.974776 14.3171H12.6925L12.8415 14.7115L4.56809 27.5159H12.3244C12.3857 27.9191 12.412 28.3398 12.412 28.7605C12.412 29.1636 12.3857 29.5492 12.3244 29.9173H0.150944L0.00195312 29.4967Z" fill="#E6E6E6"/>
<path d="M23.7003 19.6371C23.7003 18.4364 23.3936 17.6126 22.7889 17.1393C22.1841 16.6748 21.299 16.4382 20.1421 16.4382C19.4322 16.4382 18.7661 16.4908 18.1526 16.6047C17.5304 16.7187 16.9344 16.8589 16.3384 17.0429C15.9528 16.3769 15.76 15.5705 15.76 14.6415C16.4524 14.4224 17.2061 14.2472 18.0387 14.1245C18.8713 14.0018 19.6688 13.9404 20.4401 13.9404C22.4646 13.9404 24.0071 14.4049 25.0675 15.3251C26.1192 16.2454 26.6539 17.7265 26.6539 19.7511V29.5144C25.944 29.6721 25.0851 29.8474 24.0684 30.0139C23.0518 30.1892 22.0176 30.2681 20.9659 30.2681C19.9756 30.2681 19.0729 30.1804 18.2753 29.9964C17.4778 29.8123 16.7942 29.5231 16.2333 29.1112C15.6724 28.708 15.2429 28.191 14.9362 27.5599C14.6294 26.9289 14.4804 26.1664 14.4804 25.2813C14.4804 24.4136 14.6557 23.6424 15.015 22.985C15.3656 22.3277 15.8476 21.7756 16.4611 21.3461C17.0659 20.9079 17.767 20.5837 18.5645 20.3733C19.3533 20.163 20.1859 20.049 21.0623 20.049C21.7109 20.049 22.2455 20.0666 22.6574 20.0929C23.0693 20.1192 23.4199 20.163 23.7091 20.198V19.6371H23.7003ZM23.7003 22.5907C23.3936 22.5468 23.008 22.5118 22.5435 22.468C22.079 22.4241 21.6846 22.4066 21.3603 22.4066C20.0983 22.4066 19.143 22.6432 18.4857 23.1077C17.8283 23.5722 17.4953 24.2821 17.4953 25.2374C17.4953 25.8422 17.6092 26.3242 17.8283 26.666C18.0474 27.0078 18.3279 27.2707 18.6609 27.4548C18.994 27.6388 19.3621 27.7528 19.774 27.7878C20.1771 27.8316 20.5628 27.8492 20.9309 27.8492C21.3954 27.8492 21.8774 27.8229 22.3769 27.7703C22.8765 27.7177 23.3147 27.6476 23.7003 27.5424V22.5907Z" fill="#E6E6E6"/>
<path d="M29.9404 14.3178C30.1419 14.2739 30.3523 14.2476 30.5626 14.2301C30.773 14.2126 30.9921 14.2038 31.2199 14.2038C31.4215 14.2038 31.6318 14.2126 31.8597 14.2301C32.0788 14.2476 32.2979 14.2827 32.4995 14.3178C32.517 14.3616 32.5433 14.4843 32.5784 14.6946C32.6047 14.905 32.6397 15.1328 32.666 15.3782C32.6923 15.6236 32.7274 15.8515 32.7537 16.0794C32.7799 16.3072 32.7975 16.4475 32.7975 16.5088C32.9991 16.1845 33.2444 15.869 33.5249 15.5623C33.8054 15.2555 34.1472 14.9838 34.5415 14.7384C34.9359 14.493 35.3829 14.3002 35.8825 14.16C36.382 14.0198 36.9342 13.9497 37.5389 13.9497C38.4504 13.9497 39.3005 14.0987 40.0805 14.4054C40.8605 14.7121 41.5266 15.1767 42.0875 15.8164C42.6484 16.4562 43.0778 17.2713 43.3934 18.2529C43.7089 19.2345 43.8666 20.4001 43.8666 21.741C43.8666 24.4229 43.1392 26.5175 41.6931 28.0249C40.2383 29.5324 38.1874 30.2949 35.5319 30.2949C35.0849 30.2949 34.6292 30.2686 34.1647 30.2072C33.7002 30.1459 33.2883 30.067 32.9465 29.9618V37.1134C32.7011 37.1572 32.4469 37.1835 32.1665 37.201C31.8948 37.2186 31.6406 37.2273 31.4215 37.2273C31.2024 37.2273 30.9482 37.2186 30.6765 37.201C30.4049 37.1835 30.1507 37.1484 29.9316 37.1134V14.3178H29.9404ZM32.9552 27.3676C33.3409 27.5078 33.7352 27.613 34.1384 27.6744C34.5415 27.7357 35.0674 27.762 35.7247 27.762C36.4521 27.762 37.127 27.6481 37.7317 27.4114C38.3364 27.1748 38.8623 26.8155 39.3005 26.3334C39.7387 25.8427 40.0805 25.2292 40.3347 24.493C40.5888 23.7568 40.7115 22.8716 40.7115 21.8637C40.7115 20.2423 40.4135 18.954 39.8176 17.9987C39.2216 17.0434 38.24 16.5702 36.8816 16.5702C36.3733 16.5702 35.8912 16.6578 35.418 16.8418C34.9535 17.0259 34.5328 17.2976 34.1735 17.6657C33.8054 18.0338 33.5161 18.4895 33.2883 19.0504C33.0604 19.6113 32.9552 20.2686 32.9552 21.0399V27.3676Z" fill="#E6E6E6"/>
<path d="M47.6177 16.6834H45.637C45.5932 16.5169 45.5669 16.3329 45.5493 16.1225C45.5318 15.9122 45.523 15.7018 45.523 15.5003C45.523 15.2987 45.5318 15.0883 45.5493 14.878C45.5669 14.6677 45.6019 14.4749 45.637 14.3171H50.5712V29.9261C50.3521 29.9699 50.0979 29.9962 49.8262 30.0137C49.5546 30.0313 49.3004 30.04 49.0813 30.04C48.8797 30.04 48.6431 30.0313 48.3626 30.0137C48.0909 29.9962 47.8368 29.9612 47.6177 29.9261V16.6834Z" fill="#E6E6E6"/>
<path d="M57.0479 22.8626C57.0917 24.5628 57.5299 25.8161 58.3713 26.6049C59.2127 27.3936 60.4572 27.788 62.0961 27.788C63.5334 27.788 64.9094 27.5339 66.2065 27.0255C66.373 27.3323 66.5045 27.7004 66.6009 28.1386C66.706 28.5768 66.7586 29.0062 66.7849 29.4357C66.1188 29.7161 65.3826 29.9353 64.5763 30.0755C63.7788 30.2157 62.8849 30.2858 61.912 30.2858C60.4922 30.2858 59.274 30.0842 58.2574 29.6899C57.2407 29.2955 56.4081 28.7346 55.7508 28.0159C55.0935 27.2972 54.6115 26.4471 54.3047 25.4568C53.998 24.4752 53.849 23.3972 53.849 22.214C53.849 21.0571 53.998 19.9791 54.2872 18.9713C54.5764 17.9634 55.0322 17.0957 55.6369 16.3508C56.2416 15.6146 57.0129 15.0186 57.9331 14.5892C58.8533 14.151 59.9489 13.9319 61.2021 13.9319C62.2801 13.9319 63.2179 14.1159 64.033 14.484C64.848 14.8521 65.5229 15.3517 66.075 15.9914C66.6184 16.6312 67.0391 17.3937 67.3195 18.2701C67.6 19.1553 67.749 20.1106 67.749 21.1448C67.749 21.4252 67.7402 21.732 67.7139 22.0387C67.6964 22.3542 67.6701 22.6259 67.6526 22.845H57.0479V22.8626ZM64.7779 20.6102C64.7779 20.0405 64.699 19.4971 64.55 18.98C64.401 18.4629 64.1732 18.016 63.884 17.6303C63.586 17.2447 63.2179 16.938 62.7621 16.7013C62.3064 16.4647 61.763 16.3508 61.132 16.3508C59.8963 16.3508 58.9497 16.7276 58.2837 17.4726C57.6263 18.2263 57.2232 19.2692 57.083 20.6102H64.7779Z" fill="#E6E6E6"/>
<path d="M71.0794 14.3171C71.2985 14.2733 71.5176 14.247 71.7192 14.2295C71.9208 14.2119 72.1311 14.2032 72.359 14.2032C72.5781 14.2032 72.8059 14.2119 73.0251 14.2295C73.2442 14.247 73.4545 14.282 73.6298 14.3171C73.6911 14.6238 73.7525 15.0182 73.8138 15.5178C73.8752 16.0174 73.9015 16.438 73.9015 16.7798C74.3309 16.0875 74.8918 15.4915 75.593 14.9832C76.2941 14.4749 77.188 14.2207 78.2836 14.2207C78.4501 14.2207 78.6166 14.2295 78.7831 14.2382C78.9584 14.247 79.0986 14.2645 79.2213 14.282C79.2651 14.4661 79.2914 14.6589 79.309 14.8605C79.3265 15.0621 79.3353 15.2724 79.3353 15.5003C79.3353 15.7457 79.3177 15.9998 79.2914 16.2627C79.2651 16.5257 79.2213 16.7798 79.1863 17.0252C79.0197 16.9814 78.8532 16.9639 78.6867 16.9639C78.5114 16.9639 78.38 16.9639 78.2748 16.9639C77.7314 16.9639 77.2056 17.0428 76.706 17.1918C76.2064 17.3407 75.7595 17.6124 75.3651 17.9981C74.9707 18.3837 74.6552 18.9095 74.4186 19.5844C74.1819 20.2504 74.068 21.1181 74.068 22.1698V29.9261C73.8489 29.9699 73.5947 29.9962 73.323 30.0137C73.0513 30.0313 72.7972 30.04 72.5781 30.04C72.359 30.04 72.1048 30.0313 71.8331 30.0137C71.5614 29.9962 71.2985 29.9612 71.0531 29.9261V14.3171H71.0794Z" fill="#E6E6E6"/>
<path d="M53.437 5.13259H50.4922L52.5781 3.04671C52.4116 2.81884 52.2275 2.59974 52.0347 2.39816C51.8331 2.19659 51.6228 2.01254 51.3861 1.85478L49.3003 3.94066V0.995895C49.0286 0.952074 48.7481 0.925781 48.4589 0.925781H48.4501C48.1609 0.925781 47.8805 0.952074 47.6088 0.995895V3.94066L45.5229 1.85478C45.2951 2.0213 45.0759 2.20535 44.8744 2.39816C44.6728 2.59974 44.4975 2.81008 44.331 3.04671L46.4256 5.13259H43.4809C43.4809 5.13259 43.4108 5.68473 43.4108 5.97395C43.4108 6.26316 43.437 6.54362 43.4809 6.81531H46.4256L44.3398 8.90118C44.664 9.35692 45.0672 9.76007 45.5317 10.0931L47.6176 8.00724V10.952C47.8892 10.9958 48.1697 11.0221 48.4589 11.0221H48.4677C48.7569 11.0221 49.0373 10.9958 49.309 10.952V8.00724L51.3949 10.0931C51.6228 9.92659 51.8419 9.74254 52.0435 9.54973C52.245 9.34815 52.4291 9.13781 52.5868 8.90118L50.501 6.81531H53.4457C53.4895 6.54362 53.5158 6.26316 53.5158 5.97395V5.96518C53.5071 5.68473 53.4896 5.40428 53.437 5.13259ZM49.721 5.98271C49.721 6.35957 49.6508 6.7189 49.5281 7.05194C49.1951 7.17464 48.8358 7.24475 48.4589 7.24475C48.0821 7.24475 47.7227 7.17464 47.3897 7.05194C47.267 6.7189 47.1969 6.35957 47.1969 5.98271V5.97395C47.1969 5.59709 47.267 5.23776 47.3897 4.90472C47.7227 4.78202 48.0821 4.71191 48.4589 4.71191C48.8358 4.71191 49.1951 4.78202 49.5281 4.90472C49.6508 5.23776 49.721 5.59709 49.721 5.98271Z" fill="#E6E6E6"/>
</g>
</g>
</svg>
