<svg preserveAspectRatio="none" width="100%" height="100%" overflow="visible" style="display: block;" viewBox="0 0 40 40" fill="none" xmlns="http://www.w3.org/2000/svg">
<g id="pencil">
<path id="shaped-4" d="M28.8645 4.33058C26.4237 1.8898 22.4665 1.88981 20.0257 4.33058L5.90083 18.4554C5.31116 19.0451 4.93487 19.8145 4.83143 20.642L3.86268 28.392C3.74962 29.2965 4.06048 30.2025 4.70503 30.8471C5.34959 31.4916 6.25562 31.8025 7.16012 31.6894L14.9102 30.7207C15.7376 30.6173 16.507 30.241 17.0967 29.6513L31.2215 15.5264C33.6623 13.0857 33.6623 9.12838 31.2215 6.6876L28.8645 4.33058Z" fill="var(--fill-0, #9C50FF)"/>
<path id="shaped-3" d="M30.5579 16.1914L30.5117 16.1447L21.0796 6.71257L19.3576 5L17.5898 6.76777L19.3118 8.48034L19.3142 8.48275L28.7399 17.9084L28.7902 17.9592L30.5579 16.1914Z" fill="var(--fill-0, white)"/>
<path id="shaped-2" d="M10.9049 31.2222L8.25413 28.4873L7.06194 27.2949L4.33122 24.6445L3.86268 28.3928C3.74962 29.2973 4.06048 30.2034 4.70503 30.8479C5.34959 31.4925 6.25562 31.8033 7.16012 31.6903L10.9049 31.2222Z" fill="var(--fill-0, white)"/>
<path id="shaped-1" fill-rule="evenodd" clip-rule="evenodd" d="M3.75 35.834C3.75 35.1436 4.30964 34.584 5 34.584L35 34.584C35.6904 34.584 36.25 35.1436 36.25 35.834C36.25 36.5243 35.6904 37.084 35 37.084L5 37.084C4.30964 37.084 3.75 36.5243 3.75 35.834Z" fill="var(--fill-0, white)"/>
</g>
</svg>
