<svg preserveAspectRatio="none" width="100%" height="100%" overflow="visible" style="display: block;" viewBox="0 0 45 45" fill="none" xmlns="http://www.w3.org/2000/svg">
<g id="Group 633412">
<circle id="bg" cx="22.5" cy="22.5" r="22.5" fill="var(--fill-0, #3871F2)"/>
<g id="tabler-icon-send">
<path id="Vector" d="M20.001 25L31.001 14M31.001 14L13.0006 20.5C12.9048 20.5439 12.8237 20.6143 12.7668 20.7029C12.7099 20.7916 12.6797 20.8947 12.6797 21C12.6797 21.1053 12.7099 21.2084 12.7668 21.2971C12.8237 21.3857 12.9048 21.4561 13.0006 21.5L20.001 25L23.5006 32C23.5444 32.0957 23.6149 32.1769 23.7035 32.2338C23.7921 32.2906 23.8952 32.3209 24.0006 32.3209C24.1059 32.3209 24.209 32.2906 24.2976 32.2338C24.3862 32.1769 24.4567 32.0957 24.5006 32L31.001 14Z" stroke="var(--stroke-0, white)" stroke-width="1.5" stroke-linecap="round" stroke-linejoin="round"/>
</g>
</g>
</svg>
