<svg preserveAspectRatio="none" width="100%" height="100%" overflow="visible" style="display: block;" viewBox="0 0 40 40" fill="none" xmlns="http://www.w3.org/2000/svg">
<g id="shopping-bag">
<path id="shaped-1" fill-rule="evenodd" clip-rule="evenodd" d="M12.8722 9.13762C13.3596 5.57299 16.4047 2.91602 20.0025 2.91602C23.5965 2.91602 26.6395 5.56753 27.1314 9.12772L27.1318 9.13022L27.9087 14.8378C28.0018 15.5219 27.5227 16.1519 26.8387 16.245C26.1546 16.3381 25.5246 15.859 25.4315 15.175L24.655 9.46989C24.6549 9.46959 24.6549 9.4693 24.6549 9.469C24.3334 7.146 22.3477 5.41602 20.0025 5.41602C17.6545 5.41602 15.6672 7.15 15.3491 9.47635L14.5707 15.1687C14.4771 15.8527 13.8468 16.3314 13.1628 16.2378C12.4788 16.1443 12.0002 15.514 12.0937 14.83L12.8722 9.13762Z" fill="var(--fill-0, white)"/>
<path id="shaped-2" fill-rule="evenodd" clip-rule="evenodd" d="M11.0538 9.58398C6.67676 9.58398 3.34729 13.5143 4.06688 17.8318L6.28911 31.1651C6.85836 34.5806 9.81346 37.084 13.2761 37.084H26.7262C30.1888 37.084 33.1439 34.5806 33.7132 31.1651L35.9354 17.8318C36.655 13.5143 33.3255 9.58398 28.9485 9.58398H27.3935C26.6287 9.58398 25.8946 9.88436 25.3491 10.4204L24.7507 11.0086C24.0494 11.6978 23.1054 12.084 22.1221 12.084H17.8802C16.8969 12.084 15.9529 11.6978 15.2517 11.0086L14.6532 10.4204C14.1077 9.88436 13.3735 9.58398 12.6088 9.58398H11.0538Z" fill="var(--fill-0, #9C50FF)"/>
</g>
</svg>
