<svg preserveAspectRatio="none" width="100%" height="100%" overflow="visible" style="display: block;" viewBox="0 0 40 40" fill="none" xmlns="http://www.w3.org/2000/svg">
<g id="share-1">
<path id="shaped-5" fill-rule="evenodd" clip-rule="evenodd" d="M28.9229 24.1484C25.121 24.1484 22.0391 27.2304 22.0391 31.0322C22.0391 34.8341 25.121 37.916 28.9229 37.916C32.7247 37.916 35.8067 34.8341 35.8067 31.0322C35.8067 27.2304 32.7247 24.1484 28.9229 24.1484Z" fill="var(--fill-0, #9C50FF)"/>
<path id="shaped-4" fill-rule="evenodd" clip-rule="evenodd" d="M10.1441 12.8809C6.86081 12.8809 4.19922 15.5425 4.19922 18.8257C4.19922 22.1089 6.86081 24.7705 10.1441 24.7705C13.4273 24.7705 16.0889 22.1089 16.0889 18.8257C16.0889 15.5425 13.4273 12.8809 10.1441 12.8809Z" fill="var(--fill-0, #9C50FF)"/>
<path id="shaped-3" fill-rule="evenodd" clip-rule="evenodd" d="M26.5762 2.08398C23.8115 2.08398 21.5703 4.32519 21.5703 7.08985C21.5703 9.85452 23.8115 12.0957 26.5762 12.0957C29.3408 12.0957 31.582 9.85452 31.582 7.08985C31.582 4.32519 29.3408 2.08398 26.5762 2.08398Z" fill="var(--fill-0, #9C50FF)"/>
<path id="shaped-2" fill-rule="evenodd" clip-rule="evenodd" d="M23.3606 10.928C22.7175 10.3893 22.2117 9.69212 21.9035 8.89648L14.2109 14.4911C14.8204 15.0633 15.3091 15.7626 15.6348 16.5467L23.3606 10.928Z" fill="var(--fill-0, white)"/>
<path id="shaped-1" fill-rule="evenodd" clip-rule="evenodd" d="M14.25 23.1273C14.8544 22.5504 15.3373 21.8474 15.6566 21.0605L23.7219 26.5205C23.1751 27.15 22.7408 27.8798 22.4501 28.6786L14.25 23.1273Z" fill="var(--fill-0, white)"/>
</g>
</svg>
