<svg preserveAspectRatio="none" width="100%" height="100%" overflow="visible" style="display: block;" viewBox="0 0 40 40" fill="none" xmlns="http://www.w3.org/2000/svg">
<g id="heart-2">
<g id="shaped-2">
<path d="M20.0977 7.22667L20.0827 7.20854C21.1691 6.21943 22.7523 5.12514 24.6697 4.55104C27.4303 3.72445 30.7848 4.01474 34.1053 6.97223C36.3551 8.89788 38.2327 12.7342 37.8723 17.1623C37.6546 20.1889 36.0738 23.2704 33.5627 26.2313C31.0392 29.2067 27.4988 32.1533 23.1816 34.9221C21.2481 36.1621 18.7695 36.162 16.836 34.9223C11.4745 31.4849 7.29061 27.7636 4.77499 24.0427C4.70961 23.946 4.64529 23.8492 4.58203 23.7523C14.0676 24.5816 17.3835 17.2383 18.1791 11.6312C18.6563 9.32514 19.4614 8.03212 20.0977 7.22667Z" fill="var(--fill-0, #9C50FF)"/>
<path d="M20.01 7.2752L20.0827 7.20854C20.0584 7.23059 20.0337 7.25326 20.01 7.2752Z" fill="var(--fill-0, #9C50FF)"/>
</g>
<path id="shaped-1" d="M20.0811 7.20854C20.0861 7.2146 20.0911 7.22065 20.0961 7.22667C19.4598 8.03212 18.6547 9.32514 18.1775 11.6312C17.3819 17.2383 14.066 24.5816 4.58046 23.7523C3.1624 21.5796 2.28427 19.3586 2.12626 17.1623C1.76549 12.7297 3.6642 8.89505 5.9107 6.97226C9.23115 4.01475 12.5857 3.72445 15.3463 4.55103C17.3077 5.13829 18.9193 6.26982 20.0072 7.27633C20.0316 7.25379 20.0562 7.23119 20.0811 7.20854Z" fill="var(--fill-0, white)"/>
</g>
</svg>
