<svg preserveAspectRatio="none" width="100%" height="100%" overflow="visible" style="display: block;" viewBox="0 0 40 40" fill="none" xmlns="http://www.w3.org/2000/svg">
<g id="cart-1">
<path id="shaped-4" fill-rule="evenodd" clip-rule="evenodd" d="M24.7497 36.0412C25.0949 35.4434 25.8594 35.2385 26.4572 35.5837L26.4717 35.592C27.0695 35.9372 27.2744 36.7017 26.9292 37.2996C26.584 37.8974 25.8195 38.1023 25.2217 37.7571L25.2072 37.7488C24.6094 37.4036 24.4045 36.6391 24.7497 36.0412Z" fill="var(--fill-0, white)"/>
<path id="shaped-3" fill-rule="evenodd" clip-rule="evenodd" d="M14.7497 36.0412C15.0949 35.4434 15.8594 35.2385 16.4572 35.5837L16.4717 35.592C17.0695 35.9372 17.2744 36.7017 16.9292 37.2996C16.584 37.8974 15.8195 38.1023 15.2217 37.7571L15.2072 37.7488C14.6094 37.4036 14.4045 36.6391 14.7497 36.0412Z" fill="var(--fill-0, white)"/>
<path id="shaped-2" fill-rule="evenodd" clip-rule="evenodd" d="M2.21427 3.60727C2.52301 2.9898 3.27385 2.73952 3.89132 3.04826L5.61568 3.91043C6.99646 4.60082 7.93692 5.93993 8.11774 7.47305L10.4816 27.5159C10.7021 29.4061 12.3036 30.833 14.2065 30.833H31.3105C32.0009 30.833 32.5605 31.3926 32.5605 32.083C32.5605 32.7733 32.0009 33.333 31.3105 33.333H14.2065C11.0351 33.333 8.36652 30.9578 7.99871 27.8078L5.63494 7.76588C5.55275 7.069 5.12527 6.46031 4.49765 6.1465L2.77329 5.28432C2.15581 4.97559 1.90553 4.22475 2.21427 3.60727Z" fill="var(--fill-0, white)"/>
<path id="shaped-1" fill-rule="evenodd" clip-rule="evenodd" d="M37.1291 14.7332C37.6511 11.3836 35.0028 8.38307 31.6143 8.48494L5.87109 9.25888L7.29967 22.0493C7.72275 25.8372 11.0675 28.6113 14.8683 28.3265L30.3036 27.1703C33.1999 26.9534 35.565 24.7699 36.0122 21.9002L37.1291 14.7332Z" fill="var(--fill-0, #9C50FF)"/>
</g>
</svg>
