<svg preserveAspectRatio="none" width="100%" height="100%" overflow="visible" style="display: block;" viewBox="0 0 40 40" fill="none" xmlns="http://www.w3.org/2000/svg">
<g id="box">
<path id="shaped-3" d="M27.4055 3.90241C25.6562 2.67869 23.4484 2.30912 21.3961 2.8965L8.88438 6.47728C7.22939 6.95093 5.85406 7.99116 4.94543 9.3494C4.7609 9.62523 4.69363 9.96312 4.75846 10.2886C4.82328 10.6141 5.01487 10.9004 5.291 11.0845L12.7333 16.046C13.6407 16.6509 14.6788 17.0006 15.7416 17.0789C16.475 17.1328 17.2212 17.0573 17.9437 16.8476L34.5542 12.0432C34.9241 11.9362 35.2241 11.6646 35.3673 11.3071C35.5104 10.9495 35.4808 10.546 35.2869 10.2132C34.7776 9.33908 34.0799 8.57179 33.2271 7.97517L27.4055 3.90241Z" fill="var(--fill-0, white)"/>
<path id="shaped-2" opacity="0.4" fill-rule="evenodd" clip-rule="evenodd" d="M15.8408 17.0845C16.5419 17.1248 17.2531 17.0469 17.9427 16.8467L34.5532 12.0423C34.9232 11.9353 35.2232 11.6637 35.3663 11.3061C35.5058 10.9579 35.4812 10.5659 35.3007 10.2383C35.9131 11.2998 36.2487 12.5174 36.2487 13.7783V26.7124L36.2484 26.7736C36.2481 26.8084 36.2476 26.8431 36.2468 26.8777L36.2468 26.8778C36.1563 29.9515 34.0873 32.6269 31.1155 33.4774L18.6038 37.0582C17.6956 37.3182 16.7567 37.3907 15.8408 37.2847V17.0845Z" fill="var(--fill-0, #9C50FF)"/>
<path id="shaped-1" opacity="0.6" fill-rule="evenodd" clip-rule="evenodd" d="M5.12963 9.08773C5.06639 9.17362 5.00507 9.26094 4.94575 9.34962C4.76122 9.62545 4.69396 9.96335 4.75878 10.2888C4.82361 10.6143 5.0152 10.9006 5.29133 11.0847L12.7336 16.0462C13.641 16.6512 14.6791 17.0009 15.7419 17.0791C15.7753 17.0815 15.8087 17.0837 15.8421 17.0856V37.2858L15.8496 37.2867V37.2898L15.6564 37.2623C14.5684 37.1073 13.5176 36.6994 12.5946 36.0537L6.77291 31.981C4.87842 30.6556 3.75 28.489 3.75 26.1769V13.2874C3.75 11.7355 4.25488 10.2757 5.12851 9.08878C5.12888 9.08843 5.12926 9.08808 5.12963 9.08773Z" fill="var(--fill-0, white)" fill-opacity="0.6"/>
</g>
</svg>
