<svg preserveAspectRatio="none" width="100%" height="100%" overflow="visible" style="display: block;" viewBox="0 0 40 40" fill="none" xmlns="http://www.w3.org/2000/svg">
<g id="filter-2">
<g id="shaped-2">
<path d="M31.125 12.916C31.207 12.5121 31.25 12.0941 31.25 11.666C31.25 11.2379 31.207 10.8199 31.125 10.416H35C35.6904 10.416 36.25 10.9757 36.25 11.666C36.25 12.3564 35.6904 12.916 35 12.916H31.125Z" fill="var(--fill-0, white)"/>
<path d="M18.875 10.416C18.793 10.8199 18.75 11.2379 18.75 11.666C18.75 12.0941 18.793 12.5121 18.875 12.916H5C4.30964 12.916 3.75 12.3564 3.75 11.666C3.75 10.9757 4.30964 10.416 5 10.416H18.875Z" fill="var(--fill-0, white)"/>
<path d="M21.125 29.5827C21.207 29.1788 21.25 28.7608 21.25 28.3327C21.25 27.9046 21.207 27.4866 21.125 27.0827H35C35.6904 27.0827 36.25 27.6423 36.25 28.3327C36.25 29.023 35.6904 29.5827 35 29.5827H21.125Z" fill="var(--fill-0, white)"/>
<path d="M8.87502 27.0827C8.79304 27.4866 8.75 27.9046 8.75 28.3327C8.75 28.7608 8.79304 29.1788 8.87502 29.5827H5C4.30964 29.5827 3.75 29.023 3.75 28.3327C3.75 27.6423 4.30964 27.0827 5 27.0827H8.87502Z" fill="var(--fill-0, white)"/>
</g>
<g id="shaped-1">
<path d="M25 5.41602C21.5482 5.41602 18.75 8.21424 18.75 11.666C18.75 15.1178 21.5482 17.916 25 17.916C28.4518 17.916 31.25 15.1178 31.25 11.666C31.25 8.21424 28.4518 5.41602 25 5.41602Z" fill="var(--fill-0, #9C50FF)"/>
<path d="M15 22.0827C11.5482 22.0827 8.75 24.8809 8.75 28.3327C8.75 31.7845 11.5482 34.5827 15 34.5827C18.4518 34.5827 21.25 31.7845 21.25 28.3327C21.25 24.8809 18.4518 22.0827 15 22.0827Z" fill="var(--fill-0, #9C50FF)"/>
</g>
</g>
</svg>
