<svg preserveAspectRatio="none" width="100%" height="100%" overflow="visible" style="display: block;" viewBox="0 0 40 40" fill="none" xmlns="http://www.w3.org/2000/svg">
<g id="flag">
<path id="shaped-2" d="M28.9229 5.96772C29.7231 3.76833 27.7163 1.57859 25.4556 2.18434L10.2539 6.25762C8.27245 6.78855 7.09655 8.82527 7.62749 10.8068L11.2418 24.2956C11.4205 24.9624 12.1059 25.3582 12.7727 25.1795L30.3548 20.4684C32.6155 19.8626 33.2585 16.9629 31.4659 15.4582L27.0834 11.7798C26.9569 11.6737 26.9103 11.4997 26.9668 11.3445L28.9229 5.96772Z" fill="var(--fill-0, #9C50FF)"/>
<path id="shaped-1" d="M11.252 24.334C11.4464 24.9772 12.118 25.3541 12.7718 25.179L13.9798 24.8553L17.0581 36.3434C17.2367 37.0102 16.841 37.6957 16.1742 37.8743C15.5073 38.053 14.8219 37.6573 14.6432 36.9904L11.252 24.334Z" fill="var(--fill-0, white)"/>
</g>
</svg>
