<svg preserveAspectRatio="none" width="100%" height="100%" overflow="visible" style="display: block;" viewBox="0 0 39.667 45.8042" fill="none" xmlns="http://www.w3.org/2000/svg">
<g id="Group">
<path id="Vector" d="M19.8335 0L0 11.4499V34.3543L19.8335 45.8042L39.667 34.3543V11.4499L19.8335 0ZM35.9231 32.1926L19.829 41.4809L3.73939 32.1926V13.6116L19.829 4.32325L35.9186 13.6116V32.1926H35.9231Z" fill="var(--fill-0, white)"/>
<path id="Vector_2" d="M14.8155 20.9384H12.1547V16.6374L8.46875 18.8838V26.679L12.1547 28.9253V24.6243C13.6255 24.6243 14.8155 25.8143 14.8155 27.2851V32.5131L18.5014 34.7594V10.7988L14.8155 13.0451V20.9384Z" fill="var(--fill-0, white)"/>
<path id="Vector_3" d="M31.1986 27.4277V24.8873V19.6281L27.5127 17.3818V26.1753L24.8519 27.6729V13.0451L21.166 10.7988V30.6813V34.7594V35.0046L31.1986 29.2105V27.4277Z" fill="var(--fill-0, white)"/>
</g>
</svg>
