<svg xmlns="http://www.w3.org/2000/svg">
  <symbol id="device-mobile" viewBox="0 0 50 50">
    <path d="M12 10.1667C12 9.0616 12.439 8.00179 13.2204 7.22039C14.0018 6.43899 15.0616 6 16.1667 6H32.8333C33.9384 6 34.9982 6.43899 35.7796 7.22039C36.561 8.00179 37 9.0616 37 10.1667V39.3333C37 40.4384 36.561 41.4982 35.7796 42.2796C34.9982 43.061 33.9384 43.5 32.8333 43.5H16.1667C15.0616 43.5 14.0018 43.061 13.2204 42.2796C12.439 41.4982 12 40.4384 12 39.3333V10.1667Z" fill="none" stroke="var(--service-icon-accent, #3871F2)" stroke-width="2" stroke-linecap="round" stroke-linejoin="round"/>
    <path d="M24.5 39.166V39.1868M22.418 11.082H26.5846" fill="none" stroke="var(--service-icon-detail, #fff)" stroke-width="2" stroke-linecap="round" stroke-linejoin="round"/>
  </symbol>
  <symbol id="device-desktop-analytics" viewBox="0 0 50 50">
    <path d="M14.3333 41.3333H35.1667M18.5 33V41.3333M31 33V41.3333M6 10.0833C6 9.5308 6.21949 9.0009 6.61019 8.61019C7.00089 8.21949 7.5308 8 8.08333 8H41.4167C41.9692 8 42.4991 8.21949 42.8898 8.61019C43.2805 9.0009 43.5 9.5308 43.5 10.0833V30.9167C43.5 31.4692 43.2805 31.9991 42.8898 32.3898C42.4991 32.7805 41.9692 33 41.4167 33H8.08333C7.5308 33 7.00089 32.7805 6.61019 32.3898C6.21949 31.9991 6 31.4692 6 30.9167V10.0833Z" fill="none" stroke="var(--service-icon-accent, #3871F2)" stroke-width="2" stroke-linecap="round" stroke-linejoin="round"/>
    <path d="M18.5 24.6654V16.332M24.75 24.6654V22.582M31 24.6654V20.4987" fill="none" stroke="var(--service-icon-detail, #fff)" stroke-width="2" stroke-linecap="round" stroke-linejoin="round"/>
  </symbol>
  <symbol id="app-window" viewBox="0 0 50 50">
    <path d="M6 14.1667C6 13.0616 6.43899 12.0018 7.22039 11.2204C8.00179 10.439 9.0616 10 10.1667 10H39.3333C40.4384 10 41.4982 10.439 42.2796 11.2204C43.061 12.0018 43.5 13.0616 43.5 14.1667V35C43.5 36.1051 43.061 37.1649 42.2796 37.9463C41.4982 38.7277 40.4384 39.1667 39.3333 39.1667H10.1667C9.0616 39.1667 8.00179 38.7277 7.22039 37.9463C6.43899 37.1649 6 36.1051 6 35V14.1667Z" fill="none" stroke="var(--service-icon-accent, #3871F2)" stroke-width="2" stroke-linecap="round" stroke-linejoin="round"/>
    <path d="M22 14.25H22.0208M25.25 14.25H28.2708" fill="none" stroke="var(--service-icon-detail, #fff)" stroke-width="2" stroke-linecap="round" stroke-linejoin="round"/>
  </symbol>
  <symbol id="robot" viewBox="0 0 50 50">
    <path d="M24.5833 5V9.16667M18.3333 25.8333V44.5833M30.8333 25.8333V44.5833M10 34.1667L18.3333 30M30.8333 30L39.1667 34.1667M18.3333 38.3333H30.8333M12.0833 13.3333C12.0833 12.2283 12.5223 11.1685 13.3037 10.3871C14.0851 9.60565 15.1449 9.16667 16.25 9.16667H32.9167C34.0217 9.16667 35.0815 9.60565 35.8629 10.3871C36.6443 11.1685 37.0833 12.2283 37.0833 13.3333V21.6667C37.0833 22.7717 36.6443 23.8315 35.8629 24.6129C35.0815 25.3943 34.0217 25.8333 32.9167 25.8333H16.25C15.1449 25.8333 14.0851 25.3943 13.3037 24.6129C12.5223 23.8315 12.0833 22.7717 12.0833 21.6667V13.3333Z" fill="none" stroke="var(--service-icon-accent, #3871F2)" stroke-width="2" stroke-linecap="round" stroke-linejoin="round"/>
    <path d="M20.416 17.5V17.5208M28.7493 17.5V17.5208" fill="none" stroke="var(--service-icon-detail, #fff)" stroke-width="2" stroke-linecap="round" stroke-linejoin="round"/>
  </symbol>
  <symbol id="shield-check" viewBox="0 0 50 50">
    <path d="M23.5981 43.1792C17.3258 41.2349 12.0703 36.9008 8.96733 31.1134C5.86431 25.3261 5.16295 18.5502 7.0148 12.25C13.5055 12.547 19.8568 10.3054 24.7231 6C29.5894 10.3054 35.9408 12.547 42.4315 12.25C43.8454 17.0606 43.78 22.1853 42.244 26.9583" fill="none" stroke="var(--service-icon-accent, #3871F2)" stroke-width="2" stroke-linecap="round" stroke-linejoin="round"/>
    <path d="M30.9727 39.3346L35.1393 43.5013L43.4727 35.168" fill="none" stroke="var(--service-icon-detail, #fff)" stroke-width="2" stroke-linecap="round" stroke-linejoin="round"/>
  </symbol>
  <symbol id="settings-2" viewBox="0 0 50 50">
    <path d="M41.1563 12.895C41.8723 13.3022 42.4668 13.8928 42.8788 14.6061C43.2907 15.3194 43.5052 16.1296 43.5 16.9533V32.1283C43.5 33.8137 42.5771 35.3679 41.0875 36.1866L27.025 45.0825C26.3278 45.4653 25.5453 45.6659 24.75 45.6659C23.9547 45.6659 23.1722 45.4653 22.475 45.0825L8.4125 36.1866C7.68368 35.7884 7.07526 35.2016 6.65086 34.4876C6.22646 33.7737 6.00167 32.9589 6 32.1283V16.9512C6 15.2658 6.92292 13.7137 8.4125 12.895L22.475 4.60331C23.1928 4.20755 23.9991 4 24.8188 4C25.6384 4 26.4447 4.20755 27.1625 4.60331L41.225 12.895H41.1563Z" fill="none" stroke="var(--service-icon-accent, #3871F2)" stroke-width="2" stroke-linecap="round" stroke-linejoin="round"/>
    <path d="M18.5 24.832C18.5 26.4896 19.1585 28.0793 20.3306 29.2514C21.5027 30.4236 23.0924 31.082 24.75 31.082C26.4076 31.082 27.9973 30.4236 29.1694 29.2514C30.3415 28.0793 31 26.4896 31 24.832C31 23.1744 30.3415 21.5847 29.1694 20.4126C27.9973 19.2405 26.4076 18.582 24.75 18.582C23.0924 18.582 21.5027 19.2405 20.3306 20.4126C19.1585 21.5847 18.5 23.1744 18.5 24.832Z" fill="none" stroke="var(--service-icon-detail, #fff)" stroke-width="2" stroke-linecap="round" stroke-linejoin="round"/>
  </symbol>
  <symbol id="cube" viewBox="0 0 50 50">
    <path d="M42.9395 14.4114C42.5737 13.7832 42.0483 13.2629 41.4167 12.9031L26.8333 4.55312C26.1988 4.19065 25.4807 4 24.75 4C24.0193 4 23.3012 4.19065 22.6667 4.55312L8.08333 12.9031C6.79375 13.6427 6 15.0073 6 16.4823V33.1865C6 34.6635 6.79375 36.026 8.08333 36.7635L22.6667 45.1135" fill="none" stroke="var(--service-icon-accent, #3871F2)" stroke-width="2" stroke-linecap="round" stroke-linejoin="round"/>
    <path d="M43.5 16.4809V33.185C43.5 34.66 42.7062 36.0246 41.4167 36.7642L26.8333 45.1142C26.1988 45.4767 25.4807 45.6673 24.75 45.6673V24.836L42.9375 14.3359" fill="none" stroke="var(--service-icon-detail, #fff)" stroke-width="2" stroke-linecap="round" stroke-linejoin="round"/>
  </symbol>
  <symbol id="adjustments-alt" viewBox="0 0 50 50">
    <path d="M12.168 8V16.3333M12.168 24.6667V41.3333M24.668 8V28.8333M24.668 37.1667V41.3333M37.168 8V10.0833M37.168 18.4167V41.3333" fill="none" stroke="var(--service-icon-accent, #3871F2)" stroke-width="2" stroke-linecap="round" stroke-linejoin="round"/>
    <path d="M8 16.332H16.3333V24.6654H8V16.332ZM20.5 28.832H28.8333V37.1654H20.5V28.832ZM33 10.082H41.3333V18.4154H33V10.082Z" fill="none" stroke="var(--service-icon-detail, #fff)" stroke-width="2" stroke-linecap="round" stroke-linejoin="round"/>
  </symbol>
  <symbol id="cardboards" viewBox="0 0 50 50">
    <path d="M6 15.1667V32.875C6 34.2563 6.54873 35.5811 7.52549 36.5578C8.50224 37.5346 9.827 38.0833 11.2083 38.0833H13.4167C14.3538 38.0815 15.2784 37.869 16.1223 37.4615C16.9661 37.054 17.7075 36.4619 18.2917 35.7292L21.5 31.7292C21.8904 31.2425 22.3851 30.8498 22.9477 30.5799C23.5102 30.31 24.1261 30.1699 24.75 30.1699C25.3739 30.1699 25.9898 30.31 26.5523 30.5799C27.1149 30.8498 27.6096 31.2425 28 31.7292L31.2083 35.7292C31.7925 36.4619 32.5339 37.054 33.3777 37.4615C34.2216 37.869 35.1462 38.0815 36.0833 38.0833H38.2917C39.673 38.0833 40.9978 37.5346 41.9745 36.5578C42.9513 35.5811 43.5 34.2563 43.5 32.875V15.1667C43.5 14.0616 43.061 13.0018 42.2796 12.2204C41.4982 11.439 40.4384 11 39.3333 11H10.1667C9.0616 11 8.00179 11.439 7.22039 12.2204C6.43899 13.0018 6 14.0616 6 15.1667Z" fill="none" stroke="var(--service-icon-accent, #3871F2)" stroke-width="2" stroke-linecap="round" stroke-linejoin="round"/>
    <path d="M14.332 23.5013C14.332 24.0538 14.5515 24.5837 14.9422 24.9744C15.3329 25.3651 15.8628 25.5846 16.4154 25.5846C16.9679 25.5846 17.4978 25.3651 17.8885 24.9744C18.2792 24.5837 18.4987 24.0538 18.4987 23.5013C18.4987 22.9488 18.2792 22.4189 17.8885 22.0282C17.4978 21.6375 16.9679 21.418 16.4154 21.418C15.8628 21.418 15.3329 21.6375 14.9422 22.0282C14.5515 22.4189 14.332 22.9488 14.332 23.5013ZM30.9987 23.5013C30.9987 24.0538 31.2182 24.5837 31.6089 24.9744C31.9996 25.3651 32.5295 25.5846 33.082 25.5846C33.6346 25.5846 34.1645 25.3651 34.5552 24.9744C34.9459 24.5837 35.1654 24.0538 35.1654 23.5013C35.1654 22.9488 34.9459 22.4189 34.5552 22.0282C34.1645 21.6375 33.6346 21.418 33.082 21.418C32.5295 21.418 31.9996 21.6375 31.6089 22.0282C31.2182 22.4189 30.9987 22.9488 30.9987 23.5013Z" fill="none" stroke="var(--service-icon-detail, #fff)" stroke-width="2" stroke-linecap="round" stroke-linejoin="round"/>
  </symbol>
  <symbol id="paint" viewBox="0 0 50 50">
    <path d="M36.166 12.25H38.2493C39.3544 12.25 40.4142 12.689 41.1956 13.4704C41.977 14.2518 42.416 15.3116 42.416 16.4167C42.416 19.1793 41.3186 21.8289 39.365 23.7824C37.4115 25.7359 34.762 26.8333 31.9993 26.8333H21.5827V31M17.416 33.0833C17.416 32.5308 17.6355 32.0009 18.0262 31.6102C18.4169 31.2195 18.9468 31 19.4993 31H23.666C24.2186 31 24.7485 31.2195 25.1392 31.6102C25.5299 32.0009 25.7493 32.5308 25.7493 33.0833V41.4167C25.7493 41.9692 25.5299 42.4991 25.1392 42.8898C24.7485 43.2805 24.2186 43.5 23.666 43.5H19.4993C18.9468 43.5 18.4169 43.2805 18.0262 42.8898C17.6355 42.4991 17.416 41.9692 17.416 41.4167V33.0833Z" fill="none" stroke="var(--service-icon-accent, #3871F2)" stroke-width="2" stroke-linecap="round" stroke-linejoin="round"/>
    <path d="M34.9463 7.22039C34.1649 6.43899 33.1051 6 32 6H11.1667C10.0616 6 9.00179 6.43899 8.22039 7.22039C7.43899 8.00179 7 9.0616 7 10.1667V14.3333C7 15.4384 7.43899 16.4982 8.22039 17.2796C9.00179 18.061 10.0616 18.5 11.1667 18.5H32C33.1051 18.5 34.1649 18.061 34.9463 17.2796M36.1667 10.1667V14.3333" fill="none" stroke="var(--service-icon-detail, #fff)" stroke-width="2" stroke-linecap="round" stroke-linejoin="round"/>
  </symbol>
  <symbol id="device-gamepad-2" viewBox="0 0 50 50">
    <path d="M28.9634 29.834L37.4425 38.759C38.1566 39.5103 39.0951 40.0099 40.1172 40.1827C41.1392 40.3554 42.1898 40.1921 43.1111 39.7173C44.0325 39.2424 44.7751 38.4815 45.2273 37.5488C45.6796 36.6161 45.8173 35.5619 45.6196 34.5444L42.2863 17.3944M32.0889 9C34.8516 9 37.5011 10.0975 39.4546 12.051C41.4081 14.0045 42.5055 16.654 42.5055 19.4167C42.5055 22.1793 41.4081 24.8289 39.4546 26.7824C37.5011 28.7359 34.8516 29.8333 32.0889 29.8333H20.6305L12.266 38.6396C11.5505 39.3929 10.6095 39.8932 9.58489 40.0652C8.56027 40.2372 7.50751 40.0715 6.58526 39.5931C5.663 39.1147 4.92123 38.3495 4.47171 37.4128C4.0222 36.4762 3.8893 35.4188 4.09305 34.4L7.49721 17.3729C7.96973 15.0114 9.24594 12.8865 11.1087 11.36C12.9714 9.83339 15.3055 8.99943 17.7139 9H32.0889Z" fill="none" stroke="var(--service-icon-accent, #3871F2)" stroke-width="2" stroke-linecap="round" stroke-linejoin="round"/>
    <path d="M16.4622 17.332V21.4987M14.3789 19.4154H18.5456M28.9622 19.4154H33.1289" fill="none" stroke="var(--service-icon-detail, #fff)" stroke-width="2" stroke-linecap="round" stroke-linejoin="round"/>
  </symbol>
  <symbol id="transform" viewBox="0 0 50 50">
    <path d="M43.5 22.6667V16.4167C43.5 15.3116 43.061 14.2518 42.2796 13.4704C41.4982 12.689 40.4384 12.25 39.3333 12.25H26.8333M33.0833 6L26.8333 12.25L33.0833 18.5M6 26.8333V33.0833C6 34.1884 6.43899 35.2482 7.22039 36.0296C8.00179 36.811 9.0616 37.25 10.1667 37.25H22.6667M16.4167 43.5L22.6667 37.25L16.4167 31M6 12.25C6 13.9076 6.65848 15.4973 7.83058 16.6694C9.00269 17.8415 10.5924 18.5 12.25 18.5C13.9076 18.5 15.4973 17.8415 16.6694 16.6694C17.8415 15.4973 18.5 13.9076 18.5 12.25C18.5 10.5924 17.8415 9.00269 16.6694 7.83058C15.4973 6.65848 13.9076 6 12.25 6C10.5924 6 9.00269 6.65848 7.83058 7.83058C6.65848 9.00269 6 10.5924 6 12.25Z" fill="none" stroke="var(--service-icon-accent, #3871F2)" stroke-width="2" stroke-linecap="round" stroke-linejoin="round"/>
    <path d="M31 37.25C31 38.9076 31.6585 40.4973 32.8306 41.6694C34.0027 42.8415 35.5924 43.5 37.25 43.5C38.9076 43.5 40.4973 42.8415 41.6694 41.6694C42.8415 40.4973 43.5 38.9076 43.5 37.25C43.5 35.5924 42.8415 34.0027 41.6694 32.8306C40.4973 31.6585 38.9076 31 37.25 31C35.5924 31 34.0027 31.6585 32.8306 32.8306C31.6585 34.0027 31 35.5924 31 37.25Z" fill="none" stroke="var(--service-icon-detail, #fff)" stroke-width="2" stroke-linecap="round" stroke-linejoin="round"/>
  </symbol>
  <symbol id="layout-kanban" viewBox="0 0 50 50">
    <path d="M8 20.5007C8 19.3956 8.43899 18.3358 9.22039 17.5544C10.0018 16.773 11.0616 16.334 12.1667 16.334H16.3333C17.4384 16.334 18.4982 16.773 19.2796 17.5544C20.061 18.3358 20.5 19.3956 20.5 20.5007V37.1673C20.5 38.2724 20.061 39.3322 19.2796 40.1136C18.4982 40.895 17.4384 41.334 16.3333 41.334H12.1667C11.0616 41.334 10.0018 40.895 9.22039 40.1136C8.43899 39.3322 8 38.2724 8 37.1673V20.5007ZM28.8333 20.5007C28.8333 19.3956 29.2723 18.3358 30.0537 17.5544C30.8351 16.773 31.8949 16.334 33 16.334H37.1667C38.2717 16.334 39.3315 16.773 40.1129 17.5544C40.8943 18.3358 41.3333 19.3956 41.3333 20.5007V24.6673C41.3333 25.7724 40.8943 26.8322 40.1129 27.6136C39.3315 28.395 38.2717 28.834 37.1667 28.834H33C31.8949 28.834 30.8351 28.395 30.0537 27.6136C29.2723 26.8322 28.8333 25.7724 28.8333 24.6673V20.5007Z" fill="none" stroke="var(--service-icon-accent, #3871F2)" stroke-width="2" stroke-linecap="round" stroke-linejoin="round"/>
    <path d="M8 8H20.5M28.8333 8H41.3333" fill="none" stroke="var(--service-icon-detail, #fff)" stroke-width="2" stroke-linecap="round" stroke-linejoin="round"/>
  </symbol>
  <symbol id="code" viewBox="0 0 50 50">
    <path d="M14.3333 16.334L6 24.6673L14.3333 33.0007M35.1667 16.334L43.5 24.6673L35.1667 33.0007" fill="none" stroke="var(--service-icon-accent, #3871F2)" stroke-width="2" stroke-linecap="round" stroke-linejoin="round"/>
    <path d="M28.9154 8L20.582 41.3333" fill="none" stroke="var(--service-icon-detail, #fff)" stroke-width="2" stroke-linecap="round" stroke-linejoin="round"/>
  </symbol>
  <symbol id="crown" viewBox="0 0 50 50">
    <path d="M24.75 13L33.0833 25.5L43.5 17.1667L39.3333 38H10.1667L6 17.1667L16.4167 25.5L24.75 13Z" fill="none" stroke="var(--service-icon-accent, #3871F2)" stroke-width="2" stroke-linecap="round" stroke-linejoin="round"/>
    <path d="M14.5 33.5H35.5" fill="none" stroke="var(--service-icon-detail, #fff)" stroke-width="2" stroke-linecap="round" stroke-linejoin="round"/>
  </symbol>
  <symbol id="headphones" viewBox="0 0 50 50">
    <path d="M8 24.6667C8 20.2464 9.75595 16.0072 12.8816 12.8816C16.0072 9.75595 20.2464 8 24.6667 8C29.0869 8 33.3262 9.75595 36.4518 12.8816C39.5774 16.0072 41.3333 20.2464 41.3333 24.6667" fill="none" stroke="var(--service-icon-accent, #3871F2)" stroke-width="2" stroke-linecap="round" stroke-linejoin="round"/>
    <path d="M8 30.9167C8 29.8116 8.43899 28.7518 9.22039 27.9704C10.0018 27.189 11.0616 26.75 12.1667 26.75H14.25C15.3551 26.75 16.4149 27.189 17.1963 27.9704C17.9777 28.7518 18.4167 29.8116 18.4167 30.9167V37.1667C18.4167 38.2717 17.9777 39.3315 17.1963 40.1129C16.4149 40.8943 15.3551 41.3333 14.25 41.3333H12.1667C11.0616 41.3333 10.0018 40.8943 9.22039 40.1129C8.43899 39.3315 8 38.2717 8 37.1667V30.9167ZM30.9167 30.9167C30.9167 29.8116 31.3557 28.7518 32.1371 27.9704C32.9185 27.189 33.9783 26.75 35.0833 26.75H37.1667C38.2717 26.75 39.3315 27.189 40.1129 27.9704C40.8943 28.7518 41.3333 29.8116 41.3333 30.9167V37.1667C41.3333 38.2717 40.8943 39.3315 40.1129 40.1129C39.3315 40.8943 38.2717 41.3333 37.1667 41.3333H35.0833C33.9783 41.3333 32.9185 40.8943 32.1371 40.1129C31.3557 39.3315 30.9167 38.2717 30.9167 37.1667V30.9167Z" fill="none" stroke="var(--service-icon-detail, #fff)" stroke-width="2" stroke-linecap="round" stroke-linejoin="round"/>
  </symbol>
  <symbol id="briefcase" viewBox="0 0 50 50">
    <path d="M16.4167 15.3333V11.1667C16.4167 10.0616 16.8557 9.00179 17.6371 8.22039C18.4185 7.43899 19.4783 7 20.5833 7H28.9167C30.0217 7 31.0815 7.43899 31.8629 8.22039C32.6443 9.00179 33.0833 10.0616 33.0833 11.1667V15.3333M6 19.5C6 18.3949 6.43899 17.3351 7.22039 16.5537C8.00179 15.7723 9.0616 15.3333 10.1667 15.3333H39.3333C40.4384 15.3333 41.4982 15.7723 42.2796 16.5537C43.061 17.3351 43.5 18.3949 43.5 19.5V38.25C43.5 39.3551 43.061 40.4149 42.2796 41.1963C41.4982 41.9777 40.4384 42.4167 39.3333 42.4167H10.1667C9.0616 42.4167 8.00179 41.9777 7.22039 41.1963C6.43899 40.4149 6 39.3551 6 38.25V19.5Z" fill="none" stroke="var(--service-icon-accent, #3871F2)" stroke-width="2" stroke-linecap="round" stroke-linejoin="round"/>
    <path d="M6 27.832C11.8158 30.7626 18.2376 32.2892 24.75 32.2892C31.2624 32.2892 37.6842 30.7626 43.5 27.832M24.75 25.75V25.7708" fill="none" stroke="var(--service-icon-detail, #fff)" stroke-width="2" stroke-linecap="round" stroke-linejoin="round"/>
  </symbol>
  <symbol id="users" viewBox="0 0 50 50">
    <path d="M6 43.5V39.3333C6 37.1232 6.87797 35.0036 8.44078 33.4408C10.0036 31.878 12.1232 31 14.3333 31H22.6667C24.8768 31 26.9964 31.878 28.5592 33.4408C30.122 35.0036 31 37.1232 31 39.3333V43.5M10.1667 14.3333C10.1667 16.5435 11.0446 18.6631 12.6074 20.2259C14.1702 21.7887 16.2899 22.6667 18.5 22.6667C20.7101 22.6667 22.8298 21.7887 24.3926 20.2259C25.9554 18.6631 26.8333 16.5435 26.8333 14.3333C26.8333 12.1232 25.9554 10.0036 24.3926 8.44078C22.8298 6.87797 20.7101 6 18.5 6C16.2899 6 14.1702 6.87797 12.6074 8.44078C11.0446 10.0036 10.1667 12.1232 10.1667 14.3333Z" fill="none" stroke="var(--service-icon-accent, #3871F2)" stroke-width="2" stroke-linecap="round" stroke-linejoin="round"/>
    <path d="M37.5992 9.23438C38.7338 10.6961 39.3497 12.4938 39.3497 14.3441C39.3497 16.1945 38.7338 17.9922 37.5992 19.4539M43.5 43.5015V39.3348C43.4894 37.4955 42.8707 35.7115 41.7401 34.2606C40.6096 32.8098 39.0309 31.7737 37.25 31.314" fill="none" stroke="var(--service-icon-detail, #fff)" stroke-width="2" stroke-linecap="round" stroke-linejoin="round"/>
  </symbol>
</svg>
