<svg preserveAspectRatio="none" width="100%" height="100%" overflow="visible" style="display: block;" viewBox="0 0 539.877 58" fill="none" xmlns="http://www.w3.org/2000/svg">
<g id="Group">
<path id="Vector" d="M52.7067 0.918848V20.6067H18.8652V0.937535H0L0.0187009 57.7763H18.8839L18.8652 38.0136H52.7254V57.7576H71.5906L71.5719 0.918848H52.7067Z" fill="var(--fill-0, #3871F2)"/>
<path id="Vector_2" d="M145.61 9.05136C143.478 6.86382 140.73 5.10631 137.383 3.74143C134.036 2.39525 130.391 1.44172 126.445 0.862114C122.5 0.301205 117.976 0.0207283 112.834 0.0207283C100.101 0.0207283 90.6221 2.30176 84.4147 6.86382C78.2073 11.4259 75.1037 18.4559 75.1037 27.954C75.1037 38.2186 78.1326 45.7722 84.2091 50.6708C90.2856 55.5507 100.008 58 113.395 58C118.798 58 123.51 57.7008 127.567 57.1025C131.606 56.5042 135.252 55.532 138.449 54.1484C141.665 52.7649 144.245 50.9699 146.227 48.7263C148.19 46.4827 149.704 43.7529 150.752 40.4997C151.799 37.2651 152.322 33.4322 152.322 29.001C152.322 24.5137 151.724 20.6248 150.546 17.2967C149.349 13.9874 147.704 11.2202 145.572 9.03267L145.61 9.05136ZM126.875 39.6209C123.753 41.9393 119.322 43.0985 113.601 43.0985C107.767 43.0985 103.373 41.8084 100.401 39.247C97.4278 36.6855 95.9508 33.2639 95.9508 29.001C95.9508 26.7948 96.306 24.8129 96.9978 23.0928C97.7083 21.3727 98.774 19.8769 100.195 18.6429C101.616 17.4089 103.448 16.4741 105.654 15.8571C107.861 15.2401 110.422 14.9222 113.339 14.9222C118.892 14.9222 123.323 16.1188 126.614 18.5307C129.904 20.9426 131.55 24.4203 131.55 29.0197C131.55 33.7687 129.979 37.3025 126.857 39.6209H126.875Z" fill="var(--fill-0, #3871F2)"/>
<path id="Vector_3" d="M174.966 38.8924V0.918848H156.1L156.119 57.7576H216.192V38.8924H174.966Z" fill="var(--fill-0, #3871F2)"/>
<path id="Vector_4" d="M288.605 9.03063C286.473 6.84309 283.725 5.08558 280.378 3.7207C277.031 2.37452 273.385 1.42096 269.44 0.841357C265.495 0.280449 260.97 0 255.829 0C243.096 0 233.617 2.28104 227.409 6.84309C221.202 11.4051 218.098 18.4352 218.098 27.9333C218.098 38.1979 221.127 45.7514 227.204 50.65C233.28 55.5299 243.003 57.9792 256.39 57.9792C261.793 57.9792 266.505 57.6801 270.562 57.0818C274.601 56.4835 278.246 55.5113 281.444 54.1277C284.659 52.7441 287.24 50.9492 289.222 48.7056C291.185 46.4619 292.699 43.7322 293.746 40.4789C294.793 37.2443 295.317 33.4115 295.317 28.9803C295.317 24.493 294.718 20.6041 293.541 17.276C292.344 13.9479 290.699 11.1995 288.567 9.01195L288.605 9.03063ZM269.87 39.6001C266.748 41.9186 262.317 43.0778 256.595 43.0778C250.874 43.0778 246.368 41.8064 243.395 39.2262C240.423 36.646 238.945 33.2432 238.945 28.9803C238.945 26.774 239.301 24.7922 239.992 23.072C240.703 21.3519 241.769 19.8562 243.19 18.6222C244.611 17.3882 246.443 16.4533 248.649 15.8363C250.855 15.2193 253.417 14.9015 256.334 14.9015C261.887 14.9015 266.318 16.0981 269.608 18.51C272.899 20.9219 274.544 24.3995 274.544 28.999C274.544 33.748 272.974 37.2817 269.852 39.6001H269.87Z" fill="var(--fill-0, #3871F2)"/>
<path id="Vector_5" d="M331.162 41.134L312.446 0.89812H290.832L318.859 57.7369H343.539L371.398 0.89812H349.765L331.162 41.134Z" fill="var(--fill-0, #3871F2)"/>
<path id="Vector_6" d="M395.268 0.89812H376.403V57.7369H395.268V0.89812Z" fill="var(--fill-0, #3871F2)"/>
<path id="Vector_7" d="M461.756 25.5736C457.923 24.6574 448.874 23.6291 434.627 22.5073C434.571 22.4512 434.496 22.4325 434.384 22.4325C427.204 21.8342 422.904 21.4229 421.464 21.1798C420.025 20.9368 419.295 20.4694 419.239 19.7589C419.239 18.9549 419.538 18.3753 420.137 18.0574C420.735 17.7396 422.137 17.4591 424.344 17.2535C426.55 17.0478 430.065 16.9356 434.87 16.9356C438.478 16.9356 441.395 17.0291 443.62 17.2161C445.826 17.4031 447.453 17.7396 448.481 18.1883C449.51 18.637 450.164 19.1232 450.463 19.6093C450.762 20.0954 450.912 20.7685 450.912 21.6286H470.992C470.992 18.7679 470.768 16.356 470.338 14.3741C469.908 12.411 469.141 10.616 468.038 8.98941C466.935 7.36277 465.533 6.09138 463.832 5.13784C462.13 4.20299 459.886 3.39902 457.063 2.74463C454.259 2.09024 451.043 1.66019 447.434 1.41713C443.826 1.17407 439.469 1.0432 434.402 1.0432C431.374 1.0432 428.775 1.08061 426.587 1.118C424.4 1.1741 422.175 1.28627 419.912 1.43585C417.65 1.60412 415.743 1.80977 414.21 2.09023C412.677 2.37068 411.144 2.72593 409.592 3.17465C408.059 3.64208 406.806 4.20299 405.834 4.87608C404.861 5.54917 403.945 6.35314 403.085 7.26929C402.225 8.18544 401.552 9.23248 401.066 10.4291C400.58 11.607 400.206 12.9719 399.925 14.4863C399.664 16.0008 399.533 17.7022 399.533 19.5906C399.533 21.1611 399.701 22.6008 400.056 23.9283C400.411 25.2558 400.804 26.4337 401.271 27.4433C401.739 28.4716 402.487 29.3878 403.534 30.1917C404.581 30.9957 405.553 31.7062 406.451 32.3045C407.348 32.9028 408.675 33.4263 410.452 33.8751C412.228 34.3425 413.78 34.7164 415.07 35.0156C416.36 35.3147 418.267 35.6139 420.772 35.913C423.278 36.2122 425.391 36.4365 427.092 36.6048C428.793 36.7731 431.243 36.9788 434.421 37.2405C436.422 37.4088 438.927 37.5958 441.956 37.8014C446.107 38.0632 448.65 38.3062 449.566 38.5306C450.482 38.755 450.949 39.2037 450.949 39.9142C450.949 41.0921 450.295 41.8026 448.967 42.0269C447.64 42.2513 443.901 42.3448 437.749 42.3448H435.805C432.084 42.3448 429.205 42.2887 427.185 42.1765C425.166 42.0643 423.577 41.8587 422.455 41.5221C421.315 41.2043 420.604 40.7929 420.305 40.3068C420.006 39.8207 419.856 39.1289 419.856 38.194H400.337C400.337 40.3629 400.411 42.2139 400.58 43.7844C400.748 45.355 401.066 46.8321 401.552 48.2343C402.038 49.6366 402.636 50.7771 403.366 51.6746C404.095 52.572 405.104 53.3947 406.394 54.1426C407.685 54.8904 409.143 55.4887 410.77 55.9188C412.396 56.3488 414.434 56.704 416.883 56.9658C419.333 57.2276 421.988 57.4332 424.811 57.5267C427.653 57.6389 431 57.695 434.889 57.695C440.554 57.695 445.284 57.6015 449.098 57.4145C452.913 57.2276 456.297 56.8536 459.251 56.3114C462.224 55.7692 464.542 55.1148 466.206 54.3295C467.87 53.5443 469.235 52.4598 470.301 51.0576C471.348 49.6553 472.058 48.1221 472.413 46.4394C472.769 44.7754 472.937 42.6252 472.937 40.0451C472.937 36.3804 472.451 33.5759 471.479 31.6314C470.02 28.7708 466.786 26.7515 461.756 25.5549V25.5736Z" fill="var(--fill-0, #3871F2)"/>
<path id="Vector_8" d="M495.996 41.9172V36.8316L537.129 36.8129V21.6871H495.996V16.6576H539.877V0.877392H477.13L477.149 57.7161H539.877V41.9172H495.996Z" fill="var(--fill-0, #3871F2)"/>
</g>
</svg>
