<svg preserveAspectRatio="none" width="100%" height="100%" overflow="visible" style="display: block;" viewBox="0 0 45 45" fill="none" xmlns="http://www.w3.org/2000/svg">
<g id="Group 633414">
<circle id="bg" cx="22.5" cy="22.5" r="22.5" fill="var(--fill-0, #3871F2)"/>
<g id="tabler-icon-map-pin">
<g id="Vector">
<path d="M19 21C19 21.7956 19.3161 22.5587 19.8787 23.1213C20.4413 23.6839 21.2044 24 22 24C22.7956 24 23.5587 23.6839 24.1213 23.1213C24.6839 22.5587 25 21.7956 25 21C25 20.2044 24.6839 19.4413 24.1213 18.8787C23.5587 18.3161 22.7956 18 22 18C21.2044 18 20.4413 18.3161 19.8787 18.8787C19.3161 19.4413 19 20.2044 19 21Z" stroke="var(--stroke-0, white)" stroke-width="1.5" stroke-linecap="round" stroke-linejoin="round"/>
<path d="M27.657 26.6567L23.414 30.8997C23.039 31.2743 22.5306 31.4848 22.0005 31.4848C21.4704 31.4848 20.962 31.2743 20.587 30.8997L16.343 26.6567C15.2242 25.5379 14.4623 24.1124 14.1537 22.5606C13.845 21.0087 14.0035 19.4002 14.609 17.9384C15.2145 16.4767 16.2399 15.2272 17.5555 14.3482C18.8711 13.4692 20.4178 13 22 13C23.5822 13 25.1289 13.4692 26.4445 14.3482C27.7601 15.2272 28.7855 16.4767 29.391 17.9384C29.9965 19.4002 30.155 21.0087 29.8463 22.5606C29.5377 24.1124 28.7758 25.5379 27.657 26.6567Z" stroke="var(--stroke-0, white)" stroke-width="1.5" stroke-linecap="round" stroke-linejoin="round"/>
</g>
</g>
</g>
</svg>
