<svg preserveAspectRatio="none" width="100%" height="100%" overflow="visible" style="display: block;" viewBox="0 0 18.1862 21" fill="none" xmlns="http://www.w3.org/2000/svg">
<g id="Group">
<path id="Vector" d="M9.09312 0L0 5.24949V15.7505L9.09312 21L18.1862 15.7505V5.24949L9.09312 0ZM16.4698 14.7595L9.09108 19.0179L1.71441 14.7595V6.24054L9.09108 1.9821L16.4677 6.24054V14.7595H16.4698Z" fill="var(--fill-0, white)"/>
<path id="Vector_2" d="M6.79261 9.60185H5.5727V7.62998L3.88281 8.65985V12.2338L5.5727 13.2636V11.2917C6.24702 11.2917 6.79261 11.8373 6.79261 12.5117V14.9086L8.4825 15.9384V4.95312L6.79261 5.983V9.60185Z" fill="var(--fill-0, white)"/>
<path id="Vector_3" d="M14.3028 12.577V11.4123V9.0011L12.6129 7.97122V12.0028L11.393 12.6894V5.983L9.70312 4.95312V14.0687V15.9384V16.0508L14.3028 13.3944V12.577Z" fill="var(--fill-0, white)"/>
</g>
</svg>
