<svg preserveAspectRatio="none" width="100%" height="100%" overflow="visible" style="display: block;" viewBox="0 0 298.999 32.1225" fill="none" xmlns="http://www.w3.org/2000/svg">
<g id="Group">
<path id="Vector" d="M29.1907 0.507812V11.4116H10.4482V0.518162H0L0.0103572 31.9973H10.4585L10.4482 21.0521H29.2011V31.987H39.6493L39.6389 0.507812H29.1907Z" fill="var(--fill-0, white)"/>
<path id="Vector_2" d="M80.6463 5.01318C79.4658 3.80165 77.9437 2.82828 76.0901 2.07237C74.2366 1.32681 72.2173 0.79871 70.0324 0.477706C67.8475 0.167056 65.3416 0.0117188 62.494 0.0117188C55.4423 0.0117188 50.1923 1.27503 46.7544 3.80165C43.3166 6.32826 41.5977 10.2217 41.5977 15.4821C41.5977 21.167 43.2752 25.3504 46.6405 28.0634C50.0059 30.766 55.3905 32.1225 62.8047 32.1225C65.7973 32.1225 68.4067 31.9569 70.6537 31.6255C72.8904 31.2941 74.9096 30.7557 76.6803 29.9894C78.4614 29.2232 79.8904 28.2291 80.988 26.9865C82.0753 25.7439 82.914 24.232 83.4939 22.4303C84.0738 20.6389 84.3637 18.5161 84.3637 16.0619C84.3637 13.5768 84.0324 11.4229 83.38 9.57973C82.7173 7.7469 81.8061 6.21436 80.6256 5.00283L80.6463 5.01318ZM70.2706 21.9436C68.5413 23.2276 66.0872 23.8696 62.9186 23.8696C59.6878 23.8696 57.2544 23.1551 55.608 21.7365C53.9615 20.3179 53.1435 18.4229 53.1435 16.0619C53.1435 14.8401 53.3402 13.7424 53.7233 12.7898C54.1168 11.8371 54.7071 11.0087 55.494 10.3253C56.281 9.64186 57.2958 9.12411 58.5177 8.78239C59.7396 8.44068 61.1582 8.26464 62.7736 8.26464C65.849 8.26464 68.3032 8.92737 70.1256 10.2632C71.9481 11.599 72.8593 13.525 72.8593 16.0723C72.8593 18.7025 71.9895 20.6596 70.2603 21.9436H70.2706Z" fill="var(--fill-0, white)"/>
<path id="Vector_3" d="M96.9013 21.5388V0.507812H86.4531L86.4635 31.987H119.734V21.5388H96.9013Z" fill="var(--fill-0, white)"/>
<path id="Vector_4" d="M159.838 5.00146C158.657 3.78993 157.135 2.81656 155.282 2.06065C153.428 1.31509 151.409 0.786976 149.224 0.465971C147.039 0.155322 144.533 0 141.685 0C134.634 0 129.384 1.26331 125.946 3.78993C122.508 6.31655 120.789 10.21 120.789 15.4704C120.789 21.1552 122.467 25.3387 125.832 28.0517C129.197 30.7543 134.582 32.1108 141.996 32.1108C144.989 32.1108 147.598 31.9451 149.845 31.6138C152.082 31.2824 154.101 30.744 155.872 29.9777C157.653 29.2114 159.082 28.2173 160.179 26.9747C161.267 25.7321 162.105 24.2203 162.685 22.4185C163.265 20.6271 163.555 18.5044 163.555 16.0502C163.555 13.565 163.224 11.4112 162.571 9.56801C161.909 7.72483 160.997 6.20264 159.817 4.99111L159.838 5.00146ZM149.462 21.9319C147.733 23.2159 145.279 23.8579 142.11 23.8579C138.941 23.8579 136.446 23.1537 134.799 21.7248C133.153 20.2958 132.335 18.4112 132.335 16.0502C132.335 14.8283 132.532 13.7307 132.915 12.7781C133.308 11.8254 133.898 10.997 134.685 10.3136C135.472 9.63015 136.487 9.11239 137.709 8.77068C138.931 8.42896 140.35 8.25293 141.965 8.25293C145.04 8.25293 147.495 8.91564 149.317 10.2514C151.14 11.5872 152.051 13.5133 152.051 16.0606C152.051 18.6907 151.181 20.6478 149.452 21.9319H149.462Z" fill="var(--fill-0, white)"/>
<path id="Vector_5" d="M183.408 22.78L173.043 0.496094H161.072L176.594 31.9753H190.263L205.692 0.496094H193.711L183.408 22.78Z" fill="var(--fill-0, white)"/>
<path id="Vector_6" d="M218.915 0.49604H208.467V31.9752H218.915V0.49604Z" fill="var(--fill-0, white)"/>
<path id="Vector_7" d="M255.739 14.1639C253.616 13.6565 248.604 13.0869 240.714 12.4656C240.683 12.4346 240.641 12.4242 240.579 12.4242C236.603 12.0929 234.221 11.8651 233.424 11.7305C232.626 11.5958 232.223 11.337 232.192 10.9435C232.192 10.4982 232.357 10.1772 232.689 10.0012C233.02 9.82514 233.797 9.6698 235.018 9.5559C236.24 9.44199 238.187 9.37986 240.848 9.37986C242.847 9.37986 244.462 9.43165 245.694 9.5352C246.916 9.63875 247.817 9.82513 248.387 10.0736C248.956 10.3222 249.319 10.5914 249.484 10.8606C249.65 11.1299 249.733 11.5026 249.733 11.979H260.854C260.854 10.3947 260.73 9.05886 260.492 7.96124C260.254 6.87396 259.829 5.87988 259.218 4.97899C258.607 4.07811 257.83 3.37397 256.888 2.84587C255.946 2.32812 254.703 1.88286 253.14 1.52043C251.586 1.15801 249.805 0.919836 247.807 0.785222C245.808 0.650607 243.396 0.578125 240.589 0.578125C238.912 0.578125 237.473 0.598844 236.261 0.619554C235.049 0.650619 233.817 0.712747 232.564 0.795587C231.311 0.888782 230.255 1.00268 229.406 1.158C228.557 1.31333 227.708 1.51007 226.848 1.75859C225.999 2.01747 225.305 2.32812 224.767 2.7009C224.229 3.07368 223.721 3.51894 223.245 4.02634C222.768 4.53373 222.396 5.11361 222.126 5.77633C221.857 6.4287 221.65 7.18461 221.495 8.02336C221.35 8.86212 221.277 9.80442 221.277 10.8503C221.277 11.7201 221.371 12.5174 221.567 13.2526C221.764 13.9878 221.981 14.6402 222.24 15.1994C222.499 15.7689 222.913 16.2763 223.493 16.7215C224.073 17.1668 224.612 17.5603 225.109 17.8917C225.606 18.223 226.341 18.513 227.325 18.7615C228.308 19.0204 229.168 19.2275 229.882 19.3931C230.597 19.5588 231.653 19.7245 233.041 19.8902C234.428 20.0559 235.598 20.1801 236.541 20.2733C237.483 20.3665 238.839 20.4804 240.6 20.6254C241.708 20.7186 243.095 20.8221 244.773 20.936C247.072 21.081 248.48 21.2156 248.987 21.3399C249.495 21.4641 249.754 21.7127 249.754 22.1062C249.754 22.7585 249.391 23.152 248.656 23.2763C247.921 23.4005 245.85 23.4523 242.443 23.4523H241.366C239.305 23.4523 237.711 23.4212 236.592 23.3591C235.474 23.297 234.594 23.1831 233.973 22.9967C233.341 22.8206 232.947 22.5928 232.782 22.3236C232.616 22.0544 232.533 21.6712 232.533 21.1535H221.723C221.723 22.3547 221.764 23.3798 221.857 24.2496C221.95 25.1194 222.126 25.9375 222.396 26.7141C222.665 27.4907 222.996 28.1224 223.4 28.6194C223.804 29.1165 224.363 29.5721 225.078 29.9863C225.792 30.4005 226.6 30.7319 227.501 30.97C228.402 31.2082 229.53 31.4049 230.887 31.5499C232.243 31.6949 233.714 31.8088 235.277 31.8605C236.851 31.9227 238.705 31.9537 240.859 31.9537C243.996 31.9537 246.616 31.902 248.728 31.7984C250.841 31.6949 252.715 31.4878 254.351 31.1875C255.998 30.8872 257.282 30.5247 258.203 30.0898C259.125 29.6549 259.881 29.0543 260.471 28.2777C261.051 27.5011 261.444 26.652 261.641 25.72C261.838 24.7984 261.931 23.6076 261.931 22.1786C261.931 20.1491 261.662 18.5958 261.123 17.5189C260.316 15.9346 258.524 14.8162 255.739 14.1535V14.1639Z" fill="var(--fill-0, white)"/>
<path id="Vector_8" d="M274.696 23.2136V20.397L297.477 20.3867V12.0095H274.696V9.22399H298.999V0.484375H264.248L264.258 31.9635H298.999V23.2136H274.696Z" fill="var(--fill-0, white)"/>
</g>
</svg>
