<svg preserveAspectRatio="none" width="100%" height="100%" overflow="visible" style="display: block;" viewBox="0 0 40 40" fill="none" xmlns="http://www.w3.org/2000/svg">
<g id="gaming-controller">
<path id="shaped-8" d="M11.877 12.084C7.26462 12.084 3.44426 15.6643 3.14538 20.267L2.53511 29.6652C2.25871 33.9217 6.23314 37.1984 10.3588 36.1154L16.5086 34.5011C18.7973 33.9003 21.2022 33.9003 23.4908 34.5011L29.6406 36.1154C33.7663 37.1984 37.7407 33.9217 37.4643 29.6652L36.8541 20.267C36.5552 15.6643 32.7348 12.084 28.1225 12.084H11.877Z" fill="var(--fill-0, #9C50FF)"/>
<path id="shaped-7" fill-rule="evenodd" clip-rule="evenodd" d="M28.1906 19.1161C28.6787 19.6043 28.6787 20.3957 28.1906 20.8839L28.1788 20.8957C27.6906 21.3838 26.8992 21.3838 26.411 20.8957C25.9229 20.4075 25.9229 19.6161 26.411 19.1279L26.4228 19.1161C26.911 18.628 27.7024 18.628 28.1906 19.1161Z" fill="var(--fill-0, white)"/>
<path id="shaped-6" fill-rule="evenodd" clip-rule="evenodd" d="M31.5168 22.4442C32.0049 22.9324 32.0049 23.7239 31.5168 24.212L31.505 24.2238C31.0168 24.7119 30.2254 24.7119 29.7372 24.2238C29.2491 23.7356 29.2491 22.9442 29.7372 22.456L29.749 22.4442C30.2372 21.9561 31.0286 21.9561 31.5168 22.4442Z" fill="var(--fill-0, white)"/>
<path id="shaped-5" fill-rule="evenodd" clip-rule="evenodd" d="M24.8625 22.4442C25.3506 22.9324 25.3506 23.7239 24.8625 24.212L24.8507 24.2238C24.3625 24.7119 23.5711 24.7119 23.0829 24.2238C22.5948 23.7356 22.5948 22.9442 23.0829 22.456L23.0947 22.4442C23.5829 21.9561 24.3743 21.9561 24.8625 22.4442Z" fill="var(--fill-0, white)"/>
<path id="shaped-4" fill-rule="evenodd" clip-rule="evenodd" d="M28.1906 25.7704C28.6787 26.2586 28.6787 27.05 28.1906 27.5382L28.1788 27.55C27.6906 28.0381 26.8992 28.0381 26.411 27.55C25.9229 27.0618 25.9229 26.2704 26.411 25.7822L26.4228 25.7704C26.911 25.2823 27.7024 25.2823 28.1906 25.7704Z" fill="var(--fill-0, white)"/>
<path id="shaped-3" d="M20.2779 5.62521C20.6231 5.02734 20.4182 4.26285 19.8204 3.91768C19.2225 3.5725 18.458 3.77734 18.1128 4.37521L17.5851 5.28935C16.5495 7.08295 17.1641 9.37641 18.9577 10.4119C19.5436 10.7502 19.752 11.4913 19.4352 12.0835H22.0371C22.2737 10.5941 21.5917 9.04595 20.2077 8.24688C19.6098 7.9017 19.4049 7.13721 19.7501 6.53935L20.2779 5.62521Z" fill="var(--fill-0, white)"/>
<path id="shaped-2" fill-rule="evenodd" clip-rule="evenodd" d="M13.332 18.75C14.0224 18.75 14.582 19.3096 14.582 20V26.6667C14.582 27.357 14.0224 27.9167 13.332 27.9167C12.6417 27.9167 12.082 27.357 12.082 26.6667V20C12.082 19.3096 12.6417 18.75 13.332 18.75Z" fill="var(--fill-0, white)"/>
<path id="shaped-1" fill-rule="evenodd" clip-rule="evenodd" d="M8.75 23.334C8.75 22.6436 9.30964 22.084 10 22.084H16.6667C17.357 22.084 17.9167 22.6436 17.9167 23.334C17.9167 24.0243 17.357 24.584 16.6667 24.584H10C9.30964 24.584 8.75 24.0243 8.75 23.334Z" fill="var(--fill-0, white)"/>
</g>
</svg>
