<svg preserveAspectRatio="none" width="100%" height="100%" overflow="visible" style="display: block;" viewBox="0 0 40 40" fill="none" xmlns="http://www.w3.org/2000/svg">
<g id="lightning-bolt">
<path id="shaped-2" fill-rule="evenodd" clip-rule="evenodd" d="M27.5129 6.98552C28.4927 5.43423 27.1338 3.46557 25.3359 3.83157L15.9313 5.74607C15.3748 5.85936 14.8887 6.1949 14.5855 6.67505L8.44017 16.4051C7.41897 18.022 8.93347 20.0453 10.7726 19.5211L14.3849 18.4916L7.40668 33.5584C6.61395 35.2699 8.80488 36.7906 10.1311 35.4494L32.2402 13.0907C33.6992 11.6152 32.3396 9.14647 30.3127 9.59085L25.153 10.722L27.5129 6.98552Z" fill="var(--fill-0, #9C50FF)"/>
<path id="shaped-1" d="M7.23828 34.2943C7.24137 35.6559 9.00046 36.5925 10.1311 35.4491L25.6085 19.7969L21.7794 21.0733C20.9696 21.3432 19.9809 21.8365 18.9232 22.3643C16.4351 23.6057 13.5647 25.038 11.7398 24.2026L7.40668 33.5582C7.2898 33.8105 7.23778 34.0588 7.23828 34.2943Z" fill="var(--fill-0, white)"/>
</g>
</svg>
