<svg preserveAspectRatio="none" width="100%" height="100%" overflow="visible" style="display: block;" viewBox="0 0 20.1667 16.5" fill="none" xmlns="http://www.w3.org/2000/svg">
<path id="ico / social / tw" d="M20.1667 1.92261C19.4243 2.25486 18.5995 2.46251 17.7747 2.5871C18.6408 2.0472 19.3006 1.25811 19.5893 0.302896C18.7645 0.801269 17.8984 1.13352 16.9499 1.29964C15.3828 -0.3616 12.7846 -0.444662 11.0937 1.13352C10.0215 2.13026 9.56783 3.66691 9.89775 5.1205C6.55726 4.95437 3.46421 3.37619 1.36094 0.759738C0.247444 2.67017 0.824813 5.07896 2.6394 6.3249C1.97955 6.28337 1.36094 6.11724 0.783572 5.78499C0.742332 7.77848 2.14451 9.52279 4.08282 9.89657C3.46421 10.0627 2.8456 10.1042 2.22699 9.97963C2.76312 11.6824 4.33027 12.8453 6.10361 12.8868C4.37151 14.2573 2.18575 14.8803 0 14.6311C1.89707 15.8355 4.08282 16.5 6.35106 16.5C14.0218 16.5 18.3521 9.97963 18.1046 4.12375C18.9294 3.50079 19.6305 2.75323 20.1667 1.92261Z" fill="var(--fill-0, white)"/>
</svg>
