<svg preserveAspectRatio="none" width="100%" height="100%" overflow="visible" style="display: block;" viewBox="0 0 152.628 16.3971" fill="none" xmlns="http://www.w3.org/2000/svg">
<g id="Group">
<path id="Vector" d="M14.9006 0.259766V5.82569H5.33335V0.265049H0L0.00528691 16.3338H5.33864L5.33335 10.7468H14.9059V16.3285H20.2393L20.234 0.259766H14.9006Z" fill="var(--fill-0, white)"/>
<path id="Vector_2" d="M41.1651 2.55889C40.5625 1.94046 39.7855 1.4436 38.8394 1.05773C37.8932 0.677157 36.8625 0.407585 35.7472 0.243726C34.6319 0.0851526 33.3527 0.00585938 31.8991 0.00585938C28.2995 0.00585938 25.6196 0.650727 23.8647 1.94046C22.1099 3.23019 21.2324 5.21764 21.2324 7.90282C21.2324 10.8047 22.0887 12.9402 23.8066 14.3251C25.5245 15.7046 28.2731 16.3971 32.0577 16.3971C33.5853 16.3971 34.9173 16.3125 36.0643 16.1434C37.2061 15.9742 38.2368 15.6994 39.1406 15.3082C40.0498 14.9171 40.7792 14.4096 41.3395 13.7753C41.8945 13.141 42.3227 12.3693 42.6187 11.4496C42.9147 10.5351 43.0627 9.45155 43.0627 8.19882C43.0627 6.93023 42.8936 5.83079 42.5606 4.88993C42.2223 3.95434 41.7571 3.17205 41.1545 2.55361L41.1651 2.55889ZM35.8687 11.2012C34.986 11.8566 33.7333 12.1843 32.1158 12.1843C30.4667 12.1843 29.2245 11.8196 28.3841 11.0954C27.5436 10.3713 27.1261 9.40398 27.1261 8.19882C27.1261 7.5751 27.2265 7.01481 27.4221 6.52852C27.6229 6.04223 27.9242 5.61936 28.3259 5.2705C28.7277 4.92164 29.2457 4.65735 29.8694 4.48292C30.4931 4.30849 31.2173 4.21863 32.0418 4.21863C33.6117 4.21863 34.8644 4.55692 35.7947 5.23879C36.725 5.92066 37.1902 6.90381 37.1902 8.20411C37.1902 9.5467 36.7462 10.5457 35.8635 11.2012H35.8687Z" fill="var(--fill-0, white)"/>
<path id="Vector_3" d="M49.4642 10.9952V0.259766H44.1309L44.1361 16.3285H61.1194V10.9952H49.4642Z" fill="var(--fill-0, white)"/>
<path id="Vector_4" d="M81.5909 2.55303C80.9883 1.9346 80.2113 1.43774 79.2652 1.05187C78.319 0.671297 77.2883 0.401718 76.173 0.237859C75.0577 0.0792851 73.7785 0 72.3249 0C68.7253 0 66.0454 0.644867 64.2905 1.9346C62.5356 3.22433 61.6582 5.21178 61.6582 7.89696C61.6582 10.7989 62.5145 12.9343 64.2324 14.3192C65.9503 15.6988 68.6989 16.3912 72.4835 16.3912C74.0111 16.3912 75.3431 16.3066 76.4901 16.1375C77.6318 15.9684 78.6626 15.6935 79.5664 15.3023C80.4756 14.9112 81.205 14.4038 81.7653 13.7695C82.3203 13.1352 82.7485 12.3634 83.0445 11.4437C83.3405 10.5293 83.4885 9.44569 83.4885 8.19296C83.4885 6.92438 83.3193 5.82494 82.9863 4.88407C82.648 3.9432 82.1829 3.16619 81.5803 2.54775L81.5909 2.55303ZM76.2945 11.1953C75.4118 11.8507 74.1591 12.1784 72.5416 12.1784C70.9242 12.1784 69.6503 11.819 68.8099 11.0896C67.9694 10.3601 67.5518 9.39812 67.5518 8.19296C67.5518 7.56924 67.6523 7.00895 67.8479 6.52265C68.0487 6.03636 68.35 5.61351 68.7517 5.26464C69.1534 4.91578 69.6714 4.65149 70.2952 4.47706C70.9189 4.30263 71.643 4.21277 72.4676 4.21277C74.0375 4.21277 75.2902 4.55106 76.2205 5.23292C77.1508 5.91479 77.616 6.89794 77.616 8.19825C77.616 9.54084 77.172 10.5398 76.2893 11.1953H76.2945Z" fill="var(--fill-0, white)"/>
<path id="Vector_5" d="M93.6221 11.6289L88.3311 0.253906H82.2207L90.1441 16.3227H97.1213L104.997 0.253906H98.8815L93.6221 11.6289Z" fill="var(--fill-0, white)"/>
<path id="Vector_6" d="M111.745 0.253906H106.412V16.3227H111.745V0.253906Z" fill="var(--fill-0, white)"/>
<path id="Vector_7" d="M130.542 7.22987C129.459 6.97086 126.9 6.68015 122.873 6.363C122.857 6.34714 122.836 6.34186 122.804 6.34186C120.774 6.17271 119.558 6.05643 119.151 5.98771C118.744 5.919 118.538 5.78686 118.522 5.586C118.522 5.35871 118.607 5.19485 118.776 5.10499C118.945 5.01513 119.342 4.93584 119.965 4.8777C120.589 4.81955 121.583 4.78784 122.941 4.78784C123.961 4.78784 124.786 4.81427 125.415 4.86713C126.039 4.91999 126.499 5.01513 126.789 5.14198C127.08 5.26884 127.265 5.40628 127.35 5.54371C127.434 5.68114 127.477 5.87143 127.477 6.11457H133.153C133.153 5.30585 133.09 4.62398 132.968 4.06369C132.847 3.50868 132.63 3.00124 132.318 2.54138C132.006 2.08152 131.61 1.72208 131.129 1.45251C130.648 1.18822 130.014 0.960933 129.216 0.77593C128.423 0.590928 127.514 0.469351 126.493 0.400636C125.473 0.331921 124.242 0.294922 122.809 0.294922C121.953 0.294922 121.218 0.305498 120.6 0.31607C119.981 0.331927 119.352 0.363641 118.713 0.405927C118.073 0.453499 117.534 0.511638 117.101 0.590924C116.667 0.670211 116.234 0.770642 115.795 0.897501C115.361 1.02965 115.007 1.18822 114.732 1.37851C114.458 1.5688 114.199 1.79609 113.955 2.05509C113.712 2.31409 113.522 2.6101 113.385 2.94839C113.247 3.28139 113.141 3.66725 113.062 4.0954C112.988 4.52355 112.951 5.00455 112.951 5.53842C112.951 5.98242 112.999 6.38943 113.099 6.76472C113.2 7.14001 113.311 7.47301 113.443 7.75845C113.575 8.04916 113.786 8.30817 114.082 8.53546C114.378 8.76274 114.653 8.96361 114.907 9.13275C115.161 9.3019 115.536 9.4499 116.038 9.57676C116.54 9.7089 116.979 9.81462 117.344 9.89919C117.708 9.98376 118.248 10.0683 118.956 10.1529C119.664 10.2375 120.261 10.3009 120.742 10.3485C121.223 10.3961 121.916 10.4542 122.814 10.5282C123.38 10.5758 124.088 10.6286 124.945 10.6868C126.118 10.7608 126.837 10.8295 127.096 10.8929C127.355 10.9563 127.487 11.0832 127.487 11.2841C127.487 11.6171 127.302 11.8179 126.927 11.8814C126.551 11.9448 125.494 11.9712 123.755 11.9712H123.206C122.154 11.9712 121.34 11.9554 120.769 11.9236C120.198 11.8919 119.749 11.8338 119.432 11.7386C119.109 11.6488 118.908 11.5325 118.824 11.3951C118.739 11.2576 118.697 11.0621 118.697 10.7978H113.178C113.178 11.4109 113.2 11.9342 113.247 12.3782C113.295 12.8222 113.385 13.2398 113.522 13.6362C113.659 14.0327 113.829 14.3551 114.035 14.6088C114.241 14.8625 114.526 15.0951 114.891 15.3066C115.256 15.518 115.668 15.6871 116.128 15.8087C116.588 15.9303 117.164 16.0307 117.856 16.1047C118.549 16.1787 119.299 16.2368 120.098 16.2633C120.901 16.295 121.847 16.3108 122.947 16.3108C124.548 16.3108 125.885 16.2844 126.964 16.2316C128.042 16.1787 128.999 16.073 129.834 15.9197C130.674 15.7664 131.33 15.5814 131.8 15.3594C132.271 15.1374 132.657 14.8308 132.958 14.4344C133.254 14.038 133.455 13.6045 133.555 13.1288C133.656 12.6584 133.703 12.0505 133.703 11.3211C133.703 10.2851 133.566 9.49219 133.291 8.94246C132.879 8.13374 131.964 7.56287 130.542 7.22458V7.22987Z" fill="var(--fill-0, white)"/>
<path id="Vector_8" d="M140.222 11.8503V10.4126L151.851 10.4073V6.13113H140.222V4.70925H152.628V0.248047H134.889L134.894 16.3168H152.628V11.8503H140.222Z" fill="var(--fill-0, white)"/>
</g>
</svg>
