<svg preserveAspectRatio="none" width="100%" height="100%" overflow="visible" style="display: block;" viewBox="0 0 31 31" fill="none" xmlns="http://www.w3.org/2000/svg">
<g id="tabler-icon-moon-filled">
<path id="Vector" d="M15.5002 2.57422C13.1619 2.57465 10.8676 3.20981 8.86201 4.41195C6.8564 5.6141 5.21473 7.33813 4.11213 9.40014C3.00952 11.4621 2.48734 13.7848 2.60129 16.1203C2.71523 18.4558 3.46102 20.7166 4.75911 22.6615C6.0572 24.6064 7.8589 26.1624 9.972 27.1636C12.0851 28.1648 14.4304 28.5736 16.7576 28.3464C19.0848 28.1192 21.3067 27.2646 23.1863 25.8736C25.0659 24.4826 26.5326 22.6075 27.4301 20.4483C27.8705 19.3891 26.8152 18.3248 25.7535 18.7562C23.9338 19.4933 21.9132 19.5694 20.0432 18.9712C18.1732 18.373 16.572 17.1383 15.518 15.4819C14.464 13.8254 14.0238 11.852 14.274 9.90462C14.5242 7.95728 15.4489 6.1592 16.8875 4.82301L16.9869 4.71968C17.6986 3.90593 17.1329 2.58455 16.0079 2.58455H15.6643L15.5764 2.5768L15.4989 2.57422H15.5002Z" fill="var(--fill-0, white)"/>
</g>
</svg>
