<svg preserveAspectRatio="none" width="100%" height="100%" overflow="visible" style="display: block;" viewBox="0 0 22 22" fill="none" xmlns="http://www.w3.org/2000/svg">
<g id="tabler-icon-send">
<path id="Vector" d="M9.16821 12.8333L19.2515 2.75M19.2515 2.75L2.75116 8.70833C2.6634 8.74855 2.58903 8.81312 2.53689 8.89437C2.48475 8.97562 2.45703 9.07013 2.45703 9.16667C2.45703 9.26321 2.48475 9.35772 2.53689 9.43896C2.58903 9.52021 2.6634 9.58478 2.75116 9.625L9.16821 12.8333L12.3762 19.25C12.4164 19.3378 12.481 19.4121 12.5622 19.4643C12.6434 19.5164 12.738 19.5441 12.8345 19.5441C12.931 19.5441 13.0255 19.5164 13.1068 19.4643C13.188 19.4121 13.2526 19.3378 13.2928 19.25L19.2515 2.75Z" stroke="var(--stroke-0, white)" stroke-width="1.5" stroke-linecap="round" stroke-linejoin="round"/>
</g>
</svg>
