<svg preserveAspectRatio="none" width="100%" height="100%" overflow="visible" style="display: block;" viewBox="0 0 32 23.2727" fill="none" xmlns="http://www.w3.org/2000/svg">
<g id="artwork">
<rect width="32" height="23.2727" rx="4" fill="var(--fill-0, #F93939)"/>
<path id="vector" d="M28.9524 0H3.04762C1.36447 0 0 1.38927 0 3.10303V20.1697C0 21.8835 1.36447 23.2727 3.04762 23.2727H28.9524C30.6355 23.2727 32 21.8835 32 20.1697V3.10303C32 1.38927 30.6355 0 28.9524 0Z" fill="var(--fill-0, #F93939)"/>
<path id="vector_2" fill-rule="evenodd" clip-rule="evenodd" d="M8.37808 11.2175L6.13808 12.4168L6.56475 9.87695L4.75446 8.07719L7.25808 7.70948L8.37808 5.39772L9.49656 7.70948L12.0002 8.07719L10.1868 9.87695L10.6166 12.4152L8.37808 11.2175ZM13.7145 4.65455H15.2383V6.20606H13.7145V4.65455ZM15.2383 7.75758H16.7621V9.30909H15.2383V7.75758ZM15.2383 10.8606H16.7621V12.4121H15.2383V10.8606ZM13.7145 13.9636H15.2383V15.5152H13.7145V13.9636Z" fill="var(--fill-0, #FFDA2C)"/>
</g>
</svg>
