<svg preserveAspectRatio="none" width="100%" height="100%" overflow="visible" style="display: block;" viewBox="0 0 45 45" fill="none" xmlns="http://www.w3.org/2000/svg">
<g id="Group 633412">
<circle id="bg" cx="22.5" cy="22.5" r="22.5" fill="var(--fill-0, #3871F2)"/>
<g id="tabler-icon-send">
<path id="Vector" d="M20 25L31 14M31 14L12.9996 20.5C12.9038 20.5439 12.8227 20.6143 12.7658 20.7029C12.7089 20.7916 12.6787 20.8947 12.6787 21C12.6787 21.1053 12.7089 21.2084 12.7658 21.2971C12.8227 21.3857 12.9038 21.4561 12.9996 21.5L20 25L23.4996 32C23.5435 32.0957 23.6139 32.1769 23.7025 32.2338C23.7912 32.2906 23.8943 32.3209 23.9996 32.3209C24.1049 32.3209 24.208 32.2906 24.2966 32.2338C24.3853 32.1769 24.4557 32.0957 24.4996 32L31 14Z" stroke="var(--stroke-0, white)" stroke-width="1.5" stroke-linecap="round" stroke-linejoin="round"/>
</g>
</g>
</svg>
