<svg preserveAspectRatio="none" width="100%" height="100%" overflow="visible" style="display: block;" viewBox="0 0 24 22.2454" fill="none" xmlns="http://www.w3.org/2000/svg">
<path id="Avatar" fill-rule="evenodd" clip-rule="evenodd" d="M8 0C3.58172 0 0 3.58172 0 8V16C0 18.5264 1.17107 20.7792 3 22.2454V20.625C3 18.5748 4.55251 16.3693 7.65754 15.2929C8.83129 16.2802 10.3462 16.875 12 16.875C13.6488 16.875 15.1595 16.2838 16.3318 15.3019C19.4439 16.3945 21 18.6264 21 20.625V22.2454C22.8289 20.7792 24 18.5264 24 16V8C24 3.58172 20.4183 0 16 0H8ZM17.25 10.125C17.25 12.1705 16.0802 13.9428 14.3731 14.8093C13.6603 15.1711 12.854 15.375 12 15.375C11.1437 15.375 10.3353 15.17 9.62113 14.8064C7.91716 13.9388 6.75 12.1682 6.75 10.125C6.75 7.22551 9.1005 4.875 12 4.875C14.8995 4.875 17.25 7.22551 17.25 10.125Z" fill="var(--fill-0, #D9D9D9)" fill-opacity="0.5"/>
</svg>
