<svg preserveAspectRatio="none" width="100%" height="100%" overflow="visible" style="display: block;" viewBox="0 0 53.5224 54.0004" fill="none" xmlns="http://www.w3.org/2000/svg">
<g id="Group">
<path id="Vector" d="M38.161 15.551L31.1964 7.05997L29.2883 3.91161L30.8148 0L21.5605 7.82321L28.5251 16.2189L30.4332 19.3672L28.9067 23.2788L38.161 15.551Z" fill="var(--fill-0, #54FFC4)"/>
<path id="Vector_2" d="M24.7092 11.7339L13.833 11.9247L10.2076 11.4477L8.2041 7.82227L8.49031 19.9387L19.3665 19.7479L22.9919 20.2249L24.9954 23.8503L24.7092 11.7339Z" fill="var(--fill-0, #54FFC4)"/>
<path id="Vector_3" d="M13.3567 19.9395L6.77376 28.6213L4.19782 31.2927L0 30.6248L9.63592 37.8756L16.2189 29.1937L18.7948 26.6178L22.9926 27.2856L13.3567 19.9395Z" fill="var(--fill-0, #54FFC4)"/>
<path id="Vector_4" d="M12.6892 33.9654L15.2651 44.5553L15.7421 48.1807L12.5938 51.0429L24.2332 47.9899L21.5618 37.4L21.0848 33.7746L24.2332 31.0078L12.6892 33.9654Z" fill="var(--fill-0, #54FFC4)"/>
<path id="Vector_5" d="M23.1836 43.2196L33.0103 47.7991L36.1587 49.8026L36.4449 54.0004L41.3106 42.9334L31.3884 38.354L28.2401 36.4459L27.9538 32.248L23.1836 43.2196Z" fill="var(--fill-0, #54FFC4)"/>
<path id="Vector_6" d="M36.9219 40.7382L46.6532 35.8725L50.0878 34.6323L53.5224 37.0174L47.9889 26.332L38.2576 31.1977L34.7276 32.438L31.293 30.0528L36.9219 40.7382Z" fill="var(--fill-0, #54FFC4)"/>
<path id="Vector_7" d="M43.5996 28.4292L45.7939 17.7438L47.0342 14.2138L51.0412 13.069L39.211 10.6838L37.0167 21.3692L35.7764 24.8992L31.7694 26.044L43.5996 28.4292Z" fill="var(--fill-0, #54FFC4)"/>
</g>
</svg>
