<svg preserveAspectRatio="none" width="100%" height="100%" overflow="visible" style="display: block;" viewBox="0 0 18.3333 18.3333" fill="none" xmlns="http://www.w3.org/2000/svg">
<path id="path-01" d="M12.8299 0H5.50344C2.47655 0 0 2.47655 0 5.50344V12.8299C0 15.8568 2.47655 18.3333 5.50344 18.3333H12.8299C15.8568 18.3333 18.3333 15.8568 18.3333 12.8299V5.50344C18.3333 2.47655 15.8912 0 12.8299 0ZM13.965 9.18387C13.965 11.798 11.8668 13.8962 9.25266 13.8962C6.63852 13.8962 4.54034 11.798 4.54034 9.18387C4.54034 6.56973 6.63852 4.47154 9.25266 4.47154C11.8324 4.47154 13.965 6.56973 13.965 9.18387ZM13.965 5.57223C13.3458 5.57223 12.8643 5.09068 12.8643 4.47154C12.8643 3.85241 13.3458 3.37086 13.965 3.37086C14.5841 3.37086 15.0657 3.85241 15.0657 4.47154C15.0657 5.05629 14.5497 5.57223 13.965 5.57223Z" fill="var(--fill-0, white)"/>
</svg>
