<svg preserveAspectRatio="none" width="100%" height="100%" overflow="visible" style="display: block;" viewBox="0 0 33.9609 54" fill="none" xmlns="http://www.w3.org/2000/svg">
<path id="Vector" d="M0.632819 12.1289H0V22.3594H12.4453C13.6055 22.3594 14.0273 23.9414 12.9726 24.4688L10.5469 25.6289C7.27734 27.2109 4.00782 28.0547 0.632819 28.0547H0V38.2852H12.1289C13.2891 38.2852 13.7109 39.8672 12.6562 40.3945L10.125 41.5547C7.06641 43.0312 3.79688 43.7695 0.632819 43.7695H0V54H12.1289L13.5 52.3125C19.4062 45.457 26.2617 41.8711 33.4336 41.8711H33.9609V31.6406H21.832C20.6719 31.6406 20.25 30.0586 21.3047 29.5312L23.8359 28.3711C26.8945 26.8945 30.1641 26.1562 33.3281 26.1562H33.8555V15.9258H21.5156C20.3555 15.9258 19.9336 14.3438 20.9883 13.8164L23.414 12.6562C26.6836 11.0742 29.9531 10.2305 33.3281 10.2305H33.8555V0H21.7266L20.3555 1.68751C14.6601 8.54297 7.69922 12.1289 0.632819 12.1289Z" fill="var(--fill-0, #2ACB53)"/>
</svg>
