<svg preserveAspectRatio="none" width="100%" height="100%" overflow="visible" style="display: block;" viewBox="0 0 56.1784 54" fill="none" xmlns="http://www.w3.org/2000/svg">
<path id="Vector" d="M0 13.8726H15.4777C17.1975 13.8726 18.5733 15.2484 18.5733 16.9681C18.5733 18.6879 17.1975 20.0637 15.4777 20.0637H0C0.573248 27.8599 7.10828 33.9363 15.0191 33.9363H15.5924C17.3121 33.9363 18.6879 35.3121 18.6879 37.0318C18.6879 38.7516 17.3121 40.1274 15.5924 40.1274H15.0191C7.10828 40.1274 0.573248 46.2038 0 54H41.1592C49.0701 54 55.6051 47.9236 56.1784 40.1274H40.7006C38.9809 40.1274 37.6051 38.7516 37.6051 37.0318C37.6051 35.3121 38.9809 33.9363 40.7006 33.9363H56.1784C55.6051 26.1401 49.0701 20.0637 41.1592 20.0637H40.586C38.8662 20.0637 37.4905 18.6879 37.4905 16.9681C37.4905 15.2484 38.8662 13.8726 40.586 13.8726H41.1592C49.0701 13.8726 55.6051 7.79618 56.1784 0H15.0191C7.10828 0 0.573248 6.07643 0 13.8726Z" fill="var(--fill-0, #2BC3FF)"/>
</svg>
